<svg width="25" height="18" viewBox="0 0 25 18" fill="none" xmlns="http://www.w3.org/2000/svg">
<path d="M12.1393 0.355469C10.3007 0.355469 8.80595 1.85027 8.80595 3.6888C8.80595 5.52733 10.3007 7.02213 12.1393 7.02213C13.9778 7.02213 15.4726 5.52733 15.4726 3.6888C15.4726 1.85027 13.9778 0.355469 12.1393 0.355469ZM12.1393 0.799913C13.7374 0.799913 15.0282 2.09071 15.0282 3.6888C15.0282 5.28688 13.7374 6.57768 12.1393 6.57768C10.5412 6.57768 9.25039 5.28688 9.25039 3.6888C9.25039 2.09071 10.5412 0.799913 12.1393 0.799913ZM4.79906 2.13324C3.32858 2.13324 2.1324 3.32942 2.1324 4.79991C2.1324 6.27039 3.32858 7.46657 4.79906 7.46657C6.26955 7.46657 7.46572 6.27039 7.46572 4.79991C7.46572 3.32942 6.26955 2.13324 4.79906 2.13324ZM19.4657 2.13324C17.9952 2.13324 16.799 3.32942 16.799 4.79991C16.799 6.27039 17.9952 7.46657 19.4657 7.46657C20.9362 7.46657 22.1324 6.27039 22.1324 4.79991C22.1324 3.32942 20.9362 2.13324 19.4657 2.13324ZM4.79906 2.57769C6.0291 2.57769 7.02128 3.56986 7.02128 4.79991C7.02128 6.02995 6.0291 7.02213 4.79906 7.02213C3.56902 7.02213 2.57684 6.02995 2.57684 4.79991C2.57684 3.56986 3.56902 2.57769 4.79906 2.57769ZM19.4657 2.57769C20.6958 2.57769 21.6879 3.56986 21.6879 4.79991C21.6879 6.02995 20.6958 7.02213 19.4657 7.02213C18.2357 7.02213 17.2435 6.02995 17.2435 4.79991C17.2435 3.56986 18.2357 2.57769 19.4657 2.57769ZM5.21306 8.35546C3.48651 8.35546 2.24262 9.11328 1.46484 10.2435C0.686202 11.3737 0.355469 12.8597 0.355469 14.3555C0.355469 14.4145 0.378038 14.4709 0.419705 14.5126C0.461372 14.5543 0.517796 14.5777 0.576823 14.5777C0.635849 14.5777 0.692274 14.5543 0.73394 14.5126C0.775607 14.4709 0.799045 14.4145 0.799045 14.3555C0.799045 12.9258 1.12196 11.523 1.83029 10.4961C2.53862 9.46836 3.61326 8.79997 5.21317 8.79997C5.57862 8.79997 6.21317 8.88417 6.73226 9.04737C6.78868 9.0656 6.84944 9.05865 6.9024 9.03174C6.95448 9.00483 6.99354 8.95796 7.0109 8.90153C7.02913 8.84511 7.02392 8.78435 6.99615 8.7314C6.96924 8.67931 6.92149 8.64025 6.86507 8.62289C6.29043 8.44233 5.64275 8.35546 5.21306 8.35546ZM12.1393 8.35546C8.5915 8.35546 5.69484 11.0352 5.69484 14.3554C5.69484 14.4145 5.71828 14.4709 5.75994 14.5126C5.80161 14.5542 5.8589 14.5777 5.91706 14.5777C5.97609 14.5777 6.03338 14.5542 6.07505 14.5126C6.11671 14.4709 6.13928 14.4145 6.13928 14.3554C6.13928 11.2939 8.81461 8.7999 12.1393 8.7999C15.4639 8.7999 18.1393 11.2939 18.1393 14.3554C18.1393 14.4145 18.1627 14.4709 18.2044 14.5126C18.246 14.5542 18.3033 14.5777 18.3615 14.5777C18.4205 14.5777 18.4778 14.5542 18.5195 14.5126C18.5611 14.4709 18.5837 14.4145 18.5837 14.3554C18.5837 11.0352 15.687 8.35546 12.1393 8.35546ZM19.0515 8.35546C18.6227 8.35546 17.9734 8.44226 17.3987 8.62281C17.3432 8.64017 17.2954 8.67924 17.2685 8.73132C17.2407 8.78427 17.2355 8.84503 17.2529 8.90146C17.2711 8.95788 17.3102 9.00475 17.3623 9.03166C17.4152 9.05857 17.476 9.06465 17.5315 9.04642C18.0515 8.88323 18.686 8.79902 19.0506 8.79902C20.6504 8.79902 21.7251 9.46742 22.4335 10.4952C23.1419 11.523 23.4647 12.9259 23.4647 14.3545L23.4656 14.3554C23.4656 14.4144 23.489 14.4708 23.5307 14.5125C23.5724 14.5542 23.6288 14.5776 23.6878 14.5776C23.7469 14.5776 23.8033 14.5542 23.8449 14.5125C23.8866 14.4708 23.9101 14.4144 23.9101 14.3554C23.9101 12.8597 23.5785 11.3736 22.8007 10.2434C22.022 9.1132 20.779 8.35538 19.0525 8.35538L19.0515 8.35546Z" fill="#B2B2B2" stroke="#B2B2B2" stroke-width="0.711111"/>
<path d="M14.0432 15.1083H12.9321V13.9972C12.9321 13.6917 12.6821 13.4417 12.3765 13.4417C12.071 13.4417 11.821 13.6917 11.821 13.9972V15.1083H10.7099C10.4043 15.1083 10.1543 15.3583 10.1543 15.6639C10.1543 15.9694 10.4043 16.2194 10.7099 16.2194H11.821V17.3305C11.821 17.6361 12.071 17.8861 12.3765 17.8861C12.6821 17.8861 12.9321 17.6361 12.9321 17.3305V16.2194H14.0432C14.3487 16.2194 14.5987 15.9694 14.5987 15.6639C14.5987 15.3583 14.3487 15.1083 14.0432 15.1083Z" fill="#B2B2B2"/>
</svg>
