<svg width="72" height="77" viewBox="0 0 72 77" fill="none" xmlns="http://www.w3.org/2000/svg">
<rect width="71.6997" height="76.3941" rx="35.8499" fill="#FFF8EB"/>
<path d="M47.2468 17.1116C46.9817 16.8995 46.5576 16.9525 46.3455 17.1646L22.8068 39.8021C22.5947 40.0141 22.5417 40.3322 22.6477 40.5973C22.7538 40.8624 23.0188 41.0744 23.3369 41.0744H31.8724L24.1322 58.4104C23.9731 58.7285 24.0792 59.0996 24.3972 59.3117C24.5033 59.4177 24.6623 59.4177 24.8214 59.4177C24.9804 59.4177 25.1925 59.3647 25.2985 59.2056L48.7842 36.6212C48.9963 36.4091 49.0493 36.091 48.9433 35.8259C48.8373 35.5609 48.5722 35.3488 48.2541 35.3488H39.7186L47.4589 18.0128C47.6179 17.6947 47.5119 17.3236 47.2468 17.1116ZM37.9691 35.7729C37.8631 35.985 37.9161 36.2501 38.0222 36.4621C38.1812 36.6742 38.3933 36.7802 38.6053 36.7802H46.5046L26.942 55.6006L33.6219 40.6503C33.7279 40.4383 33.6749 40.1732 33.5689 39.9611C33.4098 39.7491 33.1978 39.643 32.9857 39.643H25.0864L44.6491 20.8226L37.9691 35.7729Z" fill="#CFA667"/>
<path d="M38.0766 19.4972C37.3344 19.3912 36.5922 19.3381 35.797 19.3381C25.406 19.3381 16.9766 27.7676 16.9766 38.1585C16.9766 38.6887 16.9766 39.1658 17.0296 39.696C17.1886 41.4985 17.5597 43.248 18.1959 44.8915C19.2032 47.5422 20.7406 49.8749 22.8082 51.8365C22.9673 51.9955 23.1263 52.0485 23.2854 52.0485C23.4974 52.0485 23.6565 51.9955 23.8155 51.8365C24.0806 51.5714 24.0806 51.0943 23.7625 50.8292C21.854 49.0267 20.4226 46.853 19.4683 44.4143C18.8851 42.9299 18.514 41.2864 18.408 39.5899C18.355 39.1128 18.355 38.6887 18.355 38.2116C18.355 28.6158 26.1482 20.8226 35.744 20.8226C36.4331 20.8226 37.1223 20.8756 37.8115 20.9286C38.1826 20.9816 38.5538 20.7165 38.6068 20.2924C38.7128 19.9213 38.4477 19.5502 38.0766 19.4972Z" fill="#CFA667"/>
<path d="M54.5644 36.6744C54.4053 34.8719 54.0342 33.1224 53.3981 31.4789C52.3908 28.8282 50.8533 26.4955 48.7857 24.5339C48.5207 24.2689 48.0435 24.2689 47.7784 24.587C47.5134 24.852 47.5134 25.3292 47.8315 25.5942C49.74 27.3968 51.1714 29.5704 52.1257 32.0091C52.7089 33.4935 53.08 35.137 53.186 36.8335C53.239 37.3106 53.239 37.7347 53.239 38.2119C53.239 47.8076 45.4458 55.6009 35.85 55.6009C35.1608 55.6009 34.4716 55.5478 33.7824 55.4948C33.4113 55.4418 33.0402 55.7069 32.9872 56.131C32.9342 56.5021 33.1993 56.8732 33.6234 56.9262C34.3656 57.0323 35.1078 57.0853 35.903 57.0853C46.294 57.0853 54.7234 48.6559 54.7234 38.2649C54.6174 37.6817 54.6174 37.2046 54.5644 36.6744Z" fill="#CFA667"/>
</svg>
