<svg width="82" height="83" viewBox="0 0 82 83" fill="none" xmlns="http://www.w3.org/2000/svg">
<rect width="82" height="82.21" rx="41" fill="#FFF8EB"/>
<path d="M48.951 47.1515C48.4466 47.1362 47.2753 47.1621 46.5322 47.1515H44.0702C43.8186 47.1515 43.5553 47.0336 43.3973 46.8403C42.8918 46.272 43.3564 45.317 44.1252 45.376C45.3632 45.3772 48.7498 45.3748 48.9416 45.376C50.0836 45.3783 51.1754 44.9315 51.9863 44.1499C54.8123 41.4737 52.8733 36.633 49.02 36.5998C47.8077 36.5974 45.2754 36.5998 44.0619 36.5986C42.9561 36.5739 42.8788 34.9445 43.9928 34.8278C44.3123 34.8172 44.5288 34.8267 44.9184 34.8243H48.1318C53.1576 34.3339 56.777 39.5223 54.3139 43.9966C53.2432 45.9195 51.1754 47.1563 48.964 47.1526H48.95L48.951 47.1515Z" fill="black" stroke="#CFAA67"/>
<path d="M33.0448 55.2094C28.9165 55.2412 25.8786 51.0664 27.2114 47.1136C27.6946 45.7154 28.3371 44.9797 29.4979 43.947C30.2117 43.2844 31.3608 42.2151 31.9938 41.6268C32.3016 41.3462 32.4092 41.2354 32.4806 41.1776C32.7931 40.9112 33.2658 40.8994 33.5888 41.1576C34.0053 41.4806 34.0393 42.1126 33.6742 42.4792C33.5314 42.616 33.4484 42.6914 33.2681 42.86C32.6971 43.3905 31.6006 44.4103 30.8517 45.1059C29.5564 46.2507 28.8964 46.9804 28.6904 48.6015C28.2633 52.5745 33.0728 54.9736 35.9911 52.3128C36.0274 52.281 36.0449 52.2633 36.0485 52.2598C36.1233 52.1902 38.1056 50.3475 39.0839 49.4385C39.5801 48.9988 39.5192 48.9752 39.8574 48.783C40.3851 48.5178 41.0791 48.941 41.0966 49.5246C41.1212 49.7851 41.0088 50.0669 40.8134 50.2461C40.7397 50.3145 38.7949 52.1218 37.8061 53.0414C36.5306 54.3854 34.8503 55.2354 33.0703 55.2095L33.0448 55.2094Z" fill="black" stroke="#CFAA67"/>
<path d="M34.9407 32.9016C34.3837 32.8992 34.1672 32.4418 33.9297 31.9891C33.746 31.6578 33.4862 31.1874 33.2311 30.7253C32.8052 29.9542 32.3898 29.2032 32.3582 29.1478C32.2271 28.9156 32.2084 28.6126 32.3125 28.3721C32.5173 27.8097 33.3317 27.634 33.746 28.0809C33.8244 28.161 33.8759 28.2388 33.9192 28.3202C34.1988 28.8271 34.4703 29.3176 34.7968 29.9071C35.2813 30.7889 35.6768 31.4868 35.754 31.6472C36.0243 32.2024 35.5855 32.9051 34.9653 32.9016H34.9396L34.9407 32.9016Z" fill="black" stroke="#CFAA67"/>
<path d="M31.9029 36.977C31.8034 36.9759 31.6911 36.9511 31.601 36.9228C30.6929 36.6611 28.129 35.9219 27.9699 35.8759C26.8524 35.5234 27.3299 33.8764 28.4474 34.1664C28.5235 34.1876 32.0212 35.1968 32.1533 35.2345C32.1591 35.2369 32.1826 35.2428 32.2258 35.2605C33.1187 35.5929 32.8929 36.964 31.9286 36.9782H31.9029L31.9029 36.977Z" fill="black" stroke="#CFAA67"/>
<path d="M40.0051 32.4885C39.4365 32.4932 38.9976 31.8943 39.1696 31.3496C39.2082 31.2176 40.2123 27.7161 40.2345 27.6395C40.2696 27.5015 40.4077 27.2764 40.5422 27.1868C41.1776 26.6716 42.143 27.3035 41.9371 28.0945C41.9066 28.2124 41.6586 29.0695 41.3871 30.0162C41.2408 30.5267 41.0946 31.0348 40.9939 31.385C40.8336 32.0464 40.6733 32.4331 40.0285 32.4873H40.0039L40.0051 32.4885Z" fill="black" stroke="#CFAA67"/>
</svg>
