<svg width="48" height="47" viewBox="0 0 48 47" fill="none" xmlns="http://www.w3.org/2000/svg">
<path fill-rule="evenodd" clip-rule="evenodd" d="M13.312 44.3326L17.1305 44.7571L19.1732 42.7123L18.9694 42.1154C18.9063 41.9284 18.9547 41.7203 19.0934 41.5816L20.2955 40.3796C20.4278 40.2472 20.6212 40.1967 20.7998 40.2472L22.1469 40.617L23.0884 39.6755C23.162 39.5999 23.2607 39.5494 23.3637 39.5326L24.5973 39.3141L24.2317 37.9586C24.1833 37.78 24.2338 37.5887 24.3661 37.4563L25.2656 36.5569C25.3686 36.4539 25.5115 36.3992 25.6544 36.4056L26.9973 36.4644L28.0376 35.4241L27.1003 34.4889C26.8964 34.2872 26.8964 33.9573 27.1003 33.7555L29.538 31.3177C29.6347 31.2211 29.7671 31.1664 29.9037 31.1664C30.0403 31.1664 30.1727 31.2211 30.2694 31.3177L30.738 31.7843L32.7996 29.7206C32.9404 29.5819 33.1464 29.5335 33.3334 29.5966C36.4143 30.6453 39.7538 29.8698 42.0527 27.5707C43.652 25.9714 44.5304 23.8468 44.5304 21.5877C44.5304 19.3286 43.6499 17.2018 42.0527 15.6047C38.7553 12.3052 33.3861 12.3052 30.0866 15.6047C27.7875 17.9037 27.0121 21.245 28.0607 24.3239C28.1238 24.511 28.0754 24.719 27.9367 24.8577L25.873 26.9193L26.3396 27.3859C26.5413 27.5876 26.5413 27.9175 26.3396 28.1193L12.9484 41.5105L13.3056 44.3308L13.312 44.3326ZM17.3217 45.8184C17.3028 45.8184 17.2839 45.8184 17.265 45.8163L12.7929 45.3203C12.5554 45.293 12.3663 45.108 12.3348 44.8706L11.8955 41.3925C11.8745 41.2328 11.9292 41.0752 12.0426 40.9617L25.2466 27.7577L24.7801 27.2912C24.5762 27.0894 24.5762 26.7616 24.7801 26.5577L26.9846 24.3532C25.9612 20.9845 26.8543 17.3803 29.3594 14.8775C33.0623 11.1746 39.0896 11.1746 42.7926 14.8775C44.5873 16.6722 45.575 19.0575 45.575 21.5938C45.575 24.1304 44.5873 26.5156 42.7926 28.3102C40.2897 30.8131 36.6853 31.7083 33.3169 30.6828L31.1123 32.8874C31.0157 32.984 30.8833 33.0387 30.7467 33.0387C30.608 33.0387 30.4777 32.984 30.3789 32.8874L29.9124 32.4208L28.2059 34.1252L29.1432 35.0604C29.3449 35.2621 29.3449 35.5921 29.1432 35.7938L27.5754 37.3616C27.4724 37.4646 27.3337 37.5192 27.1866 37.5129L25.8437 37.4541L25.3184 37.9794L25.7534 39.5913C25.7912 39.7321 25.7681 39.8813 25.6903 40.0053C25.6126 40.1272 25.4865 40.2134 25.3415 40.2386L23.7086 40.5265L22.6704 41.5647C22.538 41.6971 22.3446 41.7475 22.166 41.6971L20.8189 41.3272L20.0582 42.088L20.262 42.6848C20.3272 42.8719 20.2788 43.0799 20.138 43.2186L17.6897 45.6669C17.5909 45.7636 17.4583 45.8184 17.3217 45.8184Z" fill="#CFAA67" stroke="#CFAA67" stroke-width="0.5"/>
<path fill-rule="evenodd" clip-rule="evenodd" d="M12.8472 45.3226C12.7148 45.3226 12.5824 45.2721 12.4815 45.1713C12.2777 44.9695 12.2777 44.6417 12.4815 44.4378L27.3732 29.5483C27.5749 29.3465 27.9028 29.3465 28.1066 29.5483C28.3084 29.75 28.3084 30.08 28.1066 30.2817L13.2149 45.1713C13.1141 45.2721 12.9796 45.3247 12.8472 45.3247L12.8472 45.3226Z" fill="#CFAA67" stroke="#CFAA67" stroke-width="0.5"/>
<path fill-rule="evenodd" clip-rule="evenodd" d="M37.5593 17.9391C37.0045 17.9391 36.4497 18.1514 36.0273 18.5738C35.6175 18.9836 35.3926 19.5279 35.3926 20.1058C35.3926 20.6838 35.6175 21.228 36.0273 21.6379C36.8721 22.4827 38.2465 22.4827 39.0934 21.6379C39.5011 21.2281 39.7281 20.6838 39.7281 20.1058C39.7281 19.5258 39.5032 18.9836 39.0934 18.5738C38.671 18.1514 38.1162 17.9391 37.5614 17.9391H37.5593ZM37.5593 23.3086C36.7376 23.3086 35.918 22.9976 35.2939 22.3713C34.6886 21.766 34.3545 20.9611 34.3545 20.1058C34.3545 19.2505 34.6886 18.4456 35.2939 17.8404C36.5422 16.5921 38.5765 16.5921 39.8248 17.8404C40.4301 18.4456 40.7642 19.2505 40.7642 20.1058C40.7642 20.9611 40.4322 21.766 39.8248 22.3713C39.2006 22.9955 38.3789 23.3086 37.5593 23.3086Z" fill="#CFAA67" stroke="#CFAA67" stroke-width="0.5"/>
<path fill-rule="evenodd" clip-rule="evenodd" d="M0.767745 27.7075C0.540782 27.7075 0.330625 27.5541 0.267578 27.3229C0.194023 27.0455 0.357945 26.7618 0.635345 26.6882L20.9764 21.2389C21.2538 21.1653 21.5375 21.3293 21.611 21.6067C21.6846 21.8841 21.5207 22.1678 21.2433 22.2413L0.902249 27.6928C0.856016 27.7054 0.811883 27.7096 0.767751 27.7096L0.767745 27.7075Z" fill="#CFAA67" stroke="#CFAA67" stroke-width="0.5"/>
<path fill-rule="evenodd" clip-rule="evenodd" d="M4.39458 30.3744C4.28531 30.3744 4.17813 30.3408 4.08776 30.2735L0.462595 27.6067C0.271354 27.4638 0.199903 27.2095 0.292368 26.9889L1.65204 23.7567C1.71298 23.6096 1.84118 23.4982 1.99459 23.4562L20.0319 18.6226L19.8617 17.9859C19.826 17.8535 19.8449 17.7106 19.9142 17.5929C19.9815 17.4731 20.095 17.3869 20.2295 17.3512L23.241 16.5442C24.0396 13.1145 26.616 10.4391 30.0353 9.52285C31.9204 9.01848 33.8832 9.10044 35.7117 9.76033C37.498 10.4055 39.0342 11.5529 40.1543 13.0787C40.3246 13.3098 40.2741 13.6335 40.043 13.8037C39.8118 13.974 39.4882 13.9235 39.3179 13.6923C37.2374 10.8574 33.6986 9.61328 30.3022 10.5232C27.1625 11.3639 24.8195 13.8689 24.189 17.0609C24.1512 17.2543 24.0061 17.4098 23.8149 17.4602L20.9967 18.2147L21.1691 18.8514C21.2027 18.9838 21.1859 19.1267 21.1165 19.2444C21.0472 19.3642 20.9337 19.4504 20.8013 19.4861L2.50948 24.3869L1.40826 27.0075L4.50383 29.2835L7.29677 28.5354L7.41866 27.9154C7.45649 27.7221 7.60149 27.5666 7.79273 27.5141L9.43614 27.0748C9.61688 27.0265 9.80812 27.079 9.93841 27.2114L10.9219 28.2055L12.208 27.8608C12.311 27.8335 12.4203 27.8377 12.5191 27.8734L13.698 28.3022L14.0595 26.9467C14.1078 26.7681 14.2465 26.6273 14.4273 26.5789L15.6545 26.249C15.7953 26.2112 15.9445 26.2343 16.0685 26.312L17.2013 27.035L18.6219 26.6546L18.2794 25.3748C18.2436 25.2424 18.2626 25.0995 18.3319 24.9818C18.3992 24.862 18.5126 24.7758 18.6471 24.7401L21.9781 23.8469C22.1105 23.8112 22.2513 23.8301 22.3732 23.8995C22.493 23.9688 22.5791 24.0823 22.6148 24.2147L22.7851 24.8515L25.6032 24.097C25.7945 24.0466 25.9983 24.1075 26.1286 24.2568C26.3808 24.5447 26.654 24.8179 26.9461 25.0721C27.1626 25.2592 27.1857 25.587 26.9965 25.8035C26.8095 26.0199 26.4817 26.0431 26.2652 25.8539C26.0214 25.6417 25.786 25.4168 25.5654 25.1814L22.5517 25.9884C22.4193 26.0242 22.2764 26.0052 22.1588 25.9359C22.0411 25.8665 21.9528 25.7531 21.9171 25.6207L21.7469 24.9839L19.4184 25.6081L19.7609 26.8879C19.7966 27.0203 19.7777 27.1632 19.7084 27.2809C19.639 27.4007 19.5255 27.4868 19.3931 27.5226L17.2517 28.0963C17.1108 28.1341 16.9616 28.111 16.8398 28.0332L15.7049 27.3103L14.9862 27.5036L14.5575 29.1176C14.5197 29.2584 14.4251 29.3761 14.2969 29.4433C14.1687 29.5106 14.0174 29.5211 13.8808 29.4707L12.3236 28.9053L10.905 29.2857C10.7243 29.3341 10.5331 29.2815 10.4028 29.1491L9.41926 28.1551L8.38109 28.4325L8.2592 29.0524C8.22137 29.2457 8.07637 29.4013 7.88513 29.4538L4.5416 30.3491C4.49747 30.3617 4.45123 30.3659 4.4071 30.3659L4.39458 30.3744Z" fill="#CFAA67" stroke="#CFAA67" stroke-width="0.5"/>
<path fill-rule="evenodd" clip-rule="evenodd" d="M37.5593 20.6248C36.6073 20.6248 35.6658 20.4945 34.7558 20.2339C34.4805 20.1562 34.3208 19.8683 34.3986 19.593C34.4784 19.3177 34.7643 19.1579 35.0396 19.2378C35.8549 19.4711 36.7018 19.5888 37.5572 19.5888C42.603 19.5888 46.7074 15.4845 46.7074 10.4386C46.7074 5.39265 42.6031 1.28835 37.5572 1.28835C32.5113 1.28835 28.4048 5.39265 28.4048 10.4386C28.4048 10.6046 28.4112 10.7769 28.4196 10.9492C28.4364 11.235 28.2157 11.4788 27.9299 11.4956C27.642 11.5103 27.4003 11.2918 27.3835 11.006C27.373 10.8147 27.3667 10.6235 27.3667 10.4385C27.3667 4.82134 31.9375 0.25 37.5552 0.25C43.1724 0.25 47.7416 4.82085 47.7416 10.4385C47.7416 16.0562 43.1729 20.6271 37.5552 20.6271L37.5593 20.6248Z" fill="#CFAA67" stroke="#CFAA67" stroke-width="0.5"/>
</svg>
