<svg width="11" height="16" viewBox="0 0 11 16" fill="none" xmlns="http://www.w3.org/2000/svg">
<path d="M5.10863 0.987287C3.97022 0.987287 2.93921 1.44844 2.19384 2.19321C1.4497 2.93927 0.987913 3.97027 0.987913 5.108C0.987913 7.03242 2.736 9.30722 4.11493 11.1009L4.13551 11.1292C4.49504 11.5974 4.83078 12.0341 5.10927 12.431C5.39291 12.0264 5.73571 11.5807 6.10296 11.1028C7.48126 9.30897 9.22932 7.03418 9.22932 5.10794C9.22932 3.97019 8.76753 2.93984 8.02275 2.19447C7.27734 1.44906 6.24701 0.987908 5.10928 0.987908L5.10863 0.987287ZM3.43249 11.8271C2.75396 11.9725 2.17897 12.2027 1.76805 12.487C1.3918 12.7475 1.17056 13.0414 1.17056 13.3347C1.17056 13.7302 1.56096 14.1194 2.19125 14.4281C2.92704 14.7889 3.9586 15.0121 5.10933 15.0121C6.25995 15.0121 7.29094 14.7889 8.02741 14.4281C8.65771 14.1194 9.04811 13.7302 9.04811 13.3347C9.04811 13.1488 8.95871 12.961 8.79792 12.7842C8.5934 12.5578 8.27954 12.3507 7.88335 12.1751C7.6338 12.0651 7.52061 11.7744 7.63058 11.5248C7.74056 11.2753 8.03127 11.1621 8.28081 11.2721C8.79855 11.501 9.22562 11.7911 9.52725 12.1243C9.85463 12.4851 10.036 12.8948 10.036 13.3347C10.036 14.138 9.43334 14.8352 8.4596 15.3118C7.59198 15.7369 6.40659 16 5.10932 16C3.8127 16 2.62673 15.7369 1.75903 15.3118C0.785279 14.8352 0.182646 14.138 0.182646 13.3347C0.182646 12.6948 0.562755 12.1236 1.20849 11.6767C1.62525 11.3879 2.16166 11.1474 2.77846 10.9744C1.4336 9.19466 0 7.08583 0 5.10807C0 3.69761 0.571778 2.42033 1.49729 1.49599C2.4228 0.571646 3.69947 0 5.10871 0C6.51916 0 7.79644 0.571778 8.72079 1.49599C9.64513 2.4202 10.2168 3.69751 10.2168 5.10807C10.2168 7.36113 8.35228 9.78773 6.88131 11.7011C6.32626 12.4234 5.82974 13.0698 5.53645 13.5773C5.49464 13.6519 5.4329 13.7162 5.35315 13.7619C5.11775 13.897 4.81675 13.8159 4.68169 13.5805C4.40577 13.102 3.94849 12.5006 3.43203 11.8278L3.43249 11.8271ZM5.10863 6.36029C5.45465 6.36029 5.76786 6.22008 5.99426 5.99368C6.22065 5.76728 6.36087 5.45408 6.36087 5.10805C6.36087 4.76202 6.22066 4.44881 5.99426 4.22242C5.76786 3.99602 5.45465 3.85581 5.10863 3.85581C4.7626 3.85581 4.44939 3.99602 4.22299 4.22242C3.9966 4.44882 3.85638 4.76202 3.85638 5.10805C3.85638 5.45408 3.99659 5.76729 4.22299 5.99368C4.44939 6.22007 4.7626 6.36029 5.10863 6.36029ZM6.69273 6.69216C6.28755 7.09734 5.72734 7.34819 5.10863 7.34819C4.48991 7.34819 3.9297 7.09736 3.52452 6.69216C3.11933 6.28697 2.86849 5.72677 2.86849 5.10805C2.86849 4.48933 3.11931 3.92913 3.52452 3.52394C3.9297 3.11876 4.48991 2.86791 5.10863 2.86791C5.72734 2.86791 6.28755 3.11874 6.69273 3.52394C7.09792 3.92913 7.34876 4.48933 7.34876 5.10805C7.34876 5.72677 7.09794 6.28697 6.69273 6.69216Z" fill="#757575"/>
</svg>
