<svg width="90" height="90" viewBox="0 0 90 90" fill="none" xmlns="http://www.w3.org/2000/svg">
<rect width="89.8136" height="90" rx="44.9068" fill="#EBF9EE"/>
<path d="M63.6707 65.0376C63.6707 65.7211 63.1115 66.2802 62.4281 66.2802C61.7446 66.2802 61.1854 65.7211 61.1854 65.0376C61.1854 64.3541 61.7446 63.795 62.4281 63.795C63.1115 63.795 63.6707 64.3541 63.6707 65.0376ZM50.5609 64.3541C49.8774 64.3541 49.3182 64.9133 49.3182 65.5968C49.3182 66.2802 49.8774 66.8394 50.5609 66.8394C51.2443 66.8394 51.8035 66.2802 51.8035 65.5968C51.7414 64.8512 51.2443 64.3541 50.5609 64.3541ZM35.2764 50.7473C34.5929 50.7473 34.0338 51.3064 34.0338 51.9899C34.0338 52.6733 34.5929 53.2325 35.2764 53.2325C35.9599 53.2325 36.519 52.6733 36.519 51.9899C36.519 51.3064 35.9599 50.7473 35.2764 50.7473ZM68.4549 54.2266C67.7714 54.2266 67.2122 54.7858 67.2122 55.4693C67.2122 56.1527 67.7714 56.7119 68.4549 56.7119C69.1383 56.7119 69.6975 56.1527 69.6975 55.4693C69.6975 54.7858 69.1383 54.2266 68.4549 54.2266ZM47.33 39.315C47.33 39.9984 47.8892 40.5576 48.5726 40.5576C49.2561 40.5576 49.8153 39.9984 49.8153 39.315C49.8153 38.6315 49.2561 38.0723 48.5726 38.0723C47.8892 38.0723 47.33 38.6315 47.33 39.315ZM59.1972 30.2437C59.8806 30.2437 60.4398 29.6845 60.4398 29.0011C60.4398 28.3176 59.8806 27.7584 59.1972 27.7584C58.5137 27.7584 57.9546 28.3176 57.9546 29.0011C57.9546 29.6845 58.5137 30.2437 59.1972 30.2437ZM64.9133 41.5517C64.2299 41.5517 63.6707 42.1109 63.6707 42.7944C63.6707 43.4778 64.2299 44.037 64.9133 44.037C65.5968 44.037 66.156 43.4778 66.156 42.7944C66.156 42.1109 65.5346 41.5517 64.9133 41.5517ZM36.519 37.5753C37.2025 37.5753 37.7617 37.0161 37.7617 36.3326C37.7617 35.6492 37.2025 35.09 36.519 35.09C35.8356 35.09 35.2764 35.6492 35.2764 36.3326C35.2764 37.0161 35.8356 37.5753 36.519 37.5753ZM38.9422 22.6015C39.6256 22.6015 40.1848 22.0423 40.1848 21.3588C40.1848 20.6754 39.6256 20.1162 38.9422 20.1162C38.2587 20.1162 37.6995 20.6754 37.6995 21.3588C37.6995 22.0423 38.2587 22.6015 38.9422 22.6015ZM29.8709 44.969C29.8709 45.6524 30.4301 46.2116 31.1136 46.2116C31.797 46.2116 32.3562 45.6524 32.3562 44.969C32.3562 44.2855 31.797 43.7263 31.1136 43.7263C30.4301 43.7263 29.8709 44.2855 29.8709 44.969ZM29.8709 29.436C30.5544 29.436 31.1136 28.8768 31.1136 28.1934C31.1136 27.5099 30.5544 26.9507 29.8709 26.9507C29.1875 26.9507 28.6283 27.5099 28.6283 28.1934C28.6283 28.8768 29.1875 29.436 29.8709 29.436ZM21.3588 55.2208C20.6754 55.2208 20.1162 55.7799 20.1162 56.4634C20.1162 57.1468 20.6754 57.706 21.3588 57.706C22.0423 57.706 22.6015 57.1468 22.6015 56.4634C22.5394 55.7799 21.9802 55.2208 21.3588 55.2208ZM43.3536 28.1312C43.2293 27.2614 43.6021 26.4537 44.3477 26.0187C45.0932 25.5838 46.0252 25.7081 46.7087 26.2673C46.8951 26.3915 47.0815 26.6401 47.2679 26.9507C47.33 26.0809 46.9572 25.0868 46.2116 24.0305C46.0252 23.782 46.0874 23.4092 46.3359 23.2228C46.5844 23.0364 46.9572 23.0985 47.1436 23.3471C49.1318 26.143 48.3241 28.0691 47.8892 28.7526C47.8892 28.7526 47.8892 28.8147 47.8271 28.8147C47.9513 29.8088 47.8271 31.1757 47.2679 33.0397C47.2057 33.2882 46.9572 33.4746 46.7087 33.4746C46.6465 33.4746 46.5844 33.4746 46.5223 33.4746C46.2116 33.3503 46.0252 33.0397 46.1495 32.729C46.5223 31.5485 46.6465 30.6165 46.7087 29.8709C46.2116 30.0573 45.5903 30.1816 44.969 29.9952C44.0991 29.8088 43.4778 29.1253 43.3536 28.1312ZM44.5962 28.007C44.6583 28.504 44.9069 28.8147 45.2796 28.8768C45.6524 28.9389 46.2738 28.8147 46.7087 28.4419C46.5223 27.6963 46.2116 27.3856 46.0252 27.2614C45.8388 27.075 45.5903 27.0129 45.4039 27.0129C45.2175 27.0129 45.0932 27.075 44.969 27.1371C44.6583 27.2614 44.5341 27.572 44.5962 28.007ZM65.721 48.6348C65.5968 48.9454 65.224 49.0697 64.9133 48.9454C59.7564 46.8329 54.7237 48.262 51.8035 49.5667C52.3627 50.2502 52.7976 50.9336 53.2325 51.6171C54.9722 50.9958 56.3391 51.4928 57.0226 51.8035C57.3954 51.9899 57.706 52.1763 58.0167 52.4248C59.2593 51.9278 61.0612 51.6171 63.2358 51.6792C63.5464 51.6792 63.8571 51.9278 63.8571 52.3006C63.8571 52.6112 63.6086 52.9219 63.2358 52.9219C63.2358 52.9219 63.1115 52.9219 63.0494 52.9219C61.0611 52.9219 59.7564 53.1704 58.8865 53.4189C59.5079 54.2266 59.8185 55.1586 59.6321 55.9042C59.4457 56.5877 58.9487 57.0226 58.1409 57.0226C57.2711 57.0226 56.5255 56.5877 56.0906 55.9042C55.7178 55.2829 55.7178 54.5373 56.0906 53.916C56.277 53.6053 56.4634 53.3568 56.774 53.1083C56.6498 53.0461 56.5255 52.984 56.4013 52.9219C55.5314 52.4869 54.6616 52.4248 53.7296 52.6733C55.0965 55.1586 55.5935 57.2711 54.5373 58.3895C54.413 58.5137 54.2266 58.638 54.0402 58.7623C54.0402 58.7623 54.0402 58.7623 53.9781 58.8244C53.7917 58.8865 33.661 67.3986 28.504 69.6975C28.1934 69.8218 27.8827 69.8839 27.572 69.8839C26.3915 69.8839 25.4596 68.9519 25.4596 67.7714C25.4596 67.5229 25.5217 67.2122 25.646 66.9637L35.2143 40.3712C35.2143 40.3712 35.2143 40.3091 35.2764 40.3091C35.4007 39.9984 35.5249 39.7499 35.7113 39.5635C36.8297 38.383 39.1907 39.0665 41.8624 40.6197C41.8003 38.2587 41.4275 35.7735 40.247 33.9095C39.315 32.4183 37.9481 31.4242 36.2084 31.0514C35.8977 30.9893 35.6492 30.6786 35.7735 30.368C35.8356 30.0573 36.1462 29.8088 36.4569 29.9331C38.5694 30.368 40.1848 31.4864 41.3032 33.2882C42.7322 35.5871 43.1672 38.6937 43.105 41.4275C44.8447 42.608 46.7087 44.1613 48.3241 45.7767C49.194 46.6465 50.0638 47.6407 50.8715 48.5726C53.916 47.1436 59.4457 45.4039 65.224 47.8271C65.721 48.0134 65.8453 48.3241 65.721 48.6348ZM57.2711 55.345C57.4575 55.6557 57.8303 55.8421 58.2652 55.8421C58.5137 55.8421 58.5759 55.7799 58.5759 55.6557C58.638 55.345 58.3895 54.5994 57.8303 53.9781C57.4575 54.2266 57.3332 54.413 57.2711 54.5373C57.1468 54.9101 57.209 55.1586 57.2711 55.345ZM51.4307 58.7001C50.8715 58.5137 50.1881 58.2031 49.5046 57.8303C47.2057 56.6498 44.6583 54.5994 42.173 52.1763C39.7499 49.7531 37.6995 47.1436 36.519 44.8447C36.2084 44.2234 35.9599 43.6642 35.7113 43.105L26.9507 67.4607C26.9507 67.4607 26.9507 67.4607 26.9507 67.5229C26.9507 67.585 26.8886 67.7093 26.8886 67.7714C26.8886 68.2685 27.2614 68.6413 27.7584 68.6413C27.8827 68.6413 27.9448 68.6413 28.0691 68.5791L28.1934 68.517H28.2555C32.4805 66.7152 45.9631 60.999 51.4307 58.7001ZM50.7473 50.1259C49.8774 50.623 49.3182 50.9958 49.3182 50.9958C49.194 51.0579 49.0697 51.12 48.9454 51.12C48.759 51.12 48.5726 51.0579 48.4484 50.8715C48.262 50.623 48.3241 50.2502 48.5726 50.0638C48.6348 50.0017 49.1318 49.691 49.9395 49.2561C49.2561 48.4484 48.5105 47.5785 47.6407 46.7708C46.0874 45.2175 44.5962 43.9749 43.2293 42.9808C43.0429 45.7767 42.5458 48.0134 42.4837 48.1998C42.4216 48.4484 42.173 48.6348 41.9245 48.6348C41.8624 48.6348 41.8003 48.6348 41.8003 48.6348C41.4896 48.5726 41.3032 48.262 41.3653 47.8892C41.3653 47.8271 41.9867 45.2796 42.1109 42.173C40.1227 40.9304 38.5694 40.3091 37.5753 40.3091C37.2025 40.3091 36.954 40.3712 36.7676 40.5576C36.3948 40.9304 36.3948 42.173 37.5753 44.4098C38.7558 46.5844 40.6819 49.0697 43.0429 51.4307C45.4039 53.7917 47.8892 55.7178 50.0638 56.8983C52.3006 58.0788 53.5432 58.0788 53.916 57.706C54.4752 57.1468 54.1024 55.5314 52.8597 53.3568C52.1142 53.7917 51.3686 54.413 50.623 55.2829C50.4366 55.5314 50.0017 55.5935 49.7531 55.345C49.5046 55.1586 49.4425 54.7237 49.691 54.4752C50.5609 53.4189 51.4307 52.7355 52.1763 52.3006C51.8035 51.555 51.3064 50.8715 50.7473 50.1259ZM48.9454 43.1672C49.0697 43.2914 49.194 43.3536 49.3803 43.3536C49.5667 43.3536 49.691 43.2914 49.8153 43.1672C56.1527 36.6433 56.277 29.3739 56.277 29.0632C56.277 28.7526 56.0285 28.4419 55.6557 28.4419C55.345 28.4419 55.0344 28.6904 55.0344 29.0632C55.0344 29.1253 54.9101 36.2084 48.9454 42.3594C48.6969 42.5458 48.6969 42.9186 48.9454 43.1672ZM69.014 34.0338C67.2743 38.6315 64.9755 39.1286 63.7328 39.0043C63.6086 39.0043 63.5464 39.0043 63.4222 38.9422C62.4902 39.6878 61.1233 40.4334 59.0108 41.1789C58.9487 41.1789 58.8865 41.2411 58.8244 41.2411C58.5759 41.2411 58.3273 41.0547 58.2652 40.8061C58.141 40.4955 58.3273 40.1227 58.638 40.0606C60.1913 39.5635 61.3097 39.0043 62.1174 38.4451C61.4961 37.9481 61.0611 37.2646 60.9369 36.6433C60.7505 35.7735 61.1854 34.9657 61.9931 34.593C62.8008 34.158 63.7328 34.2202 64.3541 34.6551C64.9133 35.09 65.224 35.7735 65.0997 36.519C65.0376 36.8297 64.9133 37.2646 64.6027 37.7617C65.8453 37.3889 67.0258 35.9599 67.8957 33.5988C68.0199 33.2882 68.3927 33.1639 68.6412 33.226C69.014 33.3503 69.1383 33.7231 69.014 34.0338ZM63.6707 35.5871C63.5464 35.4628 63.36 35.4628 63.1736 35.4628C62.9872 35.4628 62.7387 35.5249 62.5523 35.6492C62.2417 35.8356 62.1174 36.0841 62.1795 36.3948C62.2417 36.8297 62.6145 37.3268 63.1736 37.5753C63.6707 37.0782 63.8571 36.6433 63.9192 36.2705C63.9814 36.022 63.9192 35.7735 63.6707 35.5871Z" fill="#34C759"/>
</svg>
