<svg width="15" height="15" viewBox="0 0 15 15" fill="none" xmlns="http://www.w3.org/2000/svg">
<path d="M6.75 14.925C5.8 14.825 4.91563 14.5656 4.09688 14.1469C3.27813 13.7281 2.56562 13.1844 1.95938 12.5156C1.35313 11.8469 0.875 11.0813 0.525 10.2188C0.175 9.35625 0 8.4375 0 7.4625C0 6.325 0.228125 5.275 0.684375 4.3125C1.14062 3.35 1.7625 2.525 2.55 1.8375H0.75V0.3375H5.25V4.8375H3.75V2.79375C3.0625 3.34375 2.51562 4.02187 2.10938 4.82812C1.70312 5.63438 1.5 6.5125 1.5 7.4625C1.5 9 2.00313 10.3281 3.00938 11.4469C4.01562 12.5656 5.2625 13.2188 6.75 13.4062V14.925ZM6.43125 10.9125L3.2625 7.725L4.3125 6.675L6.43125 8.79375L10.6875 4.5375L11.7375 5.60625L6.43125 10.9125ZM9.75 14.5875V10.0875H11.25V12.1313C11.9375 11.5688 12.4844 10.8875 12.8906 10.0875C13.2969 9.2875 13.5 8.4125 13.5 7.4625C13.5 5.925 12.9969 4.59688 11.9906 3.47813C10.9844 2.35938 9.7375 1.70625 8.25 1.51875V0C10.15 0.1875 11.75 0.9875 13.05 2.4C14.35 3.8125 15 5.5 15 7.4625C15 8.6 14.7719 9.65 14.3156 10.6125C13.8594 11.575 13.2375 12.4 12.45 13.0875H14.25V14.5875H9.75Z" fill="#2A3348"/>
</svg>
