<svg width="48" height="48" viewBox="0 0 48 48" fill="none" xmlns="http://www.w3.org/2000/svg">
<rect width="47.3292" height="47.3292" rx="23.6646" fill="#F5F5F5"/>
<path fill-rule="evenodd" clip-rule="evenodd" d="M30.8406 23.5062C27.9421 23.2669 25.8009 26.1715 26.8886 28.8716L27.0408 29.2482L23.8269 32.4621C23.6005 32.6885 23.4883 32.9839 23.4883 33.2794H23.4913C23.4913 33.9224 24.0081 34.4362 24.6451 34.4362L24.6441 34.4332C24.9406 34.4332 25.237 34.321 25.4614 34.0966L28.6753 30.8827C29.5837 31.2493 30.2718 31.4496 31.3044 31.2392C33.2374 30.8456 34.5804 29.0599 34.4173 27.0828L32.1518 29.3483L32.1508 29.3473C31.8404 29.6578 31.4097 29.773 30.988 29.6598C28.5823 29.0158 28.9078 29.3403 28.2638 26.9356C28.1506 26.5149 28.2678 26.0793 28.5753 25.7718L30.8406 23.5062ZM20.6179 11.6648C25.0897 11.6648 27.3442 17.0973 24.1795 20.262C21.0148 23.4267 15.5822 21.1725 15.5822 16.7004C15.5822 13.9201 17.8367 11.6646 20.6181 11.6646L20.6179 11.6648ZM23.309 14.0104C20.9183 11.6187 16.8129 13.3214 16.8129 16.7016C16.8129 20.0818 20.9194 21.7833 23.31 19.3927C24.7953 17.9064 24.7953 15.4968 23.309 14.0104ZM21.0655 30.6603C21.8758 30.6603 21.8758 31.8912 21.0655 31.8912H14.199C11.9445 31.8912 11.2784 29.1409 11.8714 27.2871C12.916 24.017 17.367 22.9104 20.6168 22.9104C22.1081 22.9104 23.6074 23.1227 24.9376 23.5484C25.7078 23.7938 25.3352 24.9606 24.567 24.7162C21.8718 23.8589 18.2602 23.945 15.7283 25.0718C14.0727 25.8089 12.89 26.9707 12.89 28.6493C12.89 29.4515 13.1794 30.6604 14.198 30.6604L21.0655 30.6603ZM29.0138 22.4897C29.7079 22.2784 31.3925 22.064 31.9865 22.5989C32.4061 22.9765 32.4392 23.6485 32.0245 24.0631L29.4555 26.6322L29.844 28.0805L31.2923 28.4691L33.8621 25.8992C34.426 25.3353 35.4095 25.6208 35.5648 26.422C36.3049 30.2328 32.7003 33.4698 28.9867 32.3132L26.3324 34.9675C25.8677 35.4322 25.2558 35.6646 24.6448 35.6646V35.6615C23.3198 35.6615 22.2601 34.5989 22.2601 33.2799H22.2631C22.2631 32.6669 22.4945 32.055 22.9572 31.5923L25.6114 28.938C24.7661 26.2269 26.2805 23.3242 29.0138 22.4902L29.0138 22.4897Z" fill="#757575" stroke="#757575" stroke-width="0.428571"/>
</svg>
