<svg width="45" height="45" viewBox="0 0 45 45" fill="none" xmlns="http://www.w3.org/2000/svg">
<rect width="45.0009" height="45" rx="22.5" fill="#F5F5F5"/>
<path d="M20.4982 26.1473C20.8228 25.8227 21.3487 25.8227 21.6733 26.1473C21.9979 26.4719 21.9979 26.9978 21.6733 27.3224L20.2623 28.7333C19.9377 29.058 19.4118 29.058 19.0872 28.7333C18.7626 28.4087 18.7626 27.8828 19.0872 27.5583L20.4982 26.1473Z" fill="#757575"/>
<path fill-rule="evenodd" clip-rule="evenodd" d="M22.4633 11.481C23.6535 10.2908 25.5817 10.2908 26.772 11.481L33.5197 18.2288C34.7099 19.4168 34.7099 21.3472 33.5197 22.5374L23.3072 32.7499H31.3641C31.8229 32.7499 32.1951 33.1221 32.1951 33.5809C32.1951 34.0397 31.8229 34.4119 31.3641 34.4119H13.636C13.1772 34.4119 12.805 34.0397 12.805 33.5809C12.805 33.1221 13.1772 32.7499 13.636 32.7499H17.4599L11.4806 26.7728C10.2903 25.5826 10.2903 23.6522 11.4806 22.4641L22.4633 11.481ZM15.2048 28.1443L19.4031 32.3448C19.9441 32.8858 20.8205 32.8858 21.3616 32.3448L32.3441 21.3622C32.8851 20.8212 32.8851 19.9448 32.3441 19.4037L28.1458 15.2033L15.2048 28.1443ZM25.5967 12.6561C25.0557 12.1151 24.1793 12.1151 23.6382 12.6561L12.6557 23.6386C12.1147 24.1796 12.1147 25.0561 12.6557 25.5971L14.0299 26.9692L26.9708 14.0282L25.5967 12.6561Z" fill="#757575"/>
</svg>
