<svg width="48" height="48" viewBox="0 0 48 48" fill="none" xmlns="http://www.w3.org/2000/svg">
<rect width="47.3292" height="47.3292" rx="23.6646" fill="#F5F5F5"/>
<path d="M33.7115 29.7495L31.8247 27.8627V20.174H24.1361L22.3908 18.4287V16.4004H20.3625L18.4757 14.5136H24.2776V18.2872H33.7115V29.7495ZM32.2964 33.6646L30.0795 31.4948H14.8436V16.2118L13.6172 14.9853L14.9379 13.6646L33.6172 32.3438L32.2964 33.6646ZM16.7304 29.608H18.6172V27.7212H16.7304V29.608ZM16.7304 25.8344H18.6172V23.9476H16.7304V25.8344ZM16.7304 22.0608H18.6172V20.174H16.7304V22.0608ZM20.504 29.608H22.3908V27.7212H20.504V29.608ZM20.504 25.8344H22.3908V23.9476H20.504V25.8344ZM24.2776 29.608H28.1927L26.3059 27.7212H24.2776V29.608ZM29.9379 23.9476H28.0512V22.0608H29.9379V23.9476Z" fill="#757575"/>
</svg>
