<svg width="38" height="38" viewBox="0 0 38 38" fill="none" xmlns="http://www.w3.org/2000/svg">
<rect width="37.7778" height="37.7778" rx="18.8889" fill="#F5F5F5"/>
<path fill-rule="evenodd" clip-rule="evenodd" d="M18.8887 16.7344C19.7775 16.7344 20.5 16.0114 20.5 15.1231C20.5 14.2347 19.7772 13.512 18.8887 13.512C18.0005 13.512 17.2778 14.2347 17.2778 15.1231C17.2778 16.0114 18.0005 16.7344 18.8887 16.7344ZM18.8887 17.5156C17.5696 17.5156 16.4966 16.4422 16.4966 15.1231C16.4966 13.8038 17.5696 12.7308 18.8887 12.7308C20.2077 12.7308 21.2814 13.8038 21.2814 15.1231C21.2812 16.4422 20.2077 17.5156 18.8887 17.5156ZM14.9479 22.8616C14.9479 23.6487 16.6788 24.2651 18.8885 24.2651C21.0983 24.2651 22.829 23.6487 22.829 22.8616C22.829 20.689 21.0615 18.9213 18.8885 18.9213C16.716 18.9215 14.9479 20.689 14.9479 22.8616ZM18.8887 18.1401C21.4923 18.1401 23.6106 20.2581 23.6106 22.8616C23.6106 23.3726 23.3313 24.0842 22.0013 24.5738C21.174 24.8785 20.0686 25.0463 18.8887 25.0463C17.7089 25.0463 16.6036 24.8783 15.7761 24.5738C14.4461 24.0845 14.1667 23.3726 14.1667 22.8616C14.1667 20.2583 16.2851 18.1401 18.8887 18.1401ZM28.8887 18.8887C28.8887 21.5598 27.8483 24.0711 25.9596 25.9598C24.0711 27.8485 21.5596 28.8887 18.8887 28.8887C16.212 28.8887 13.6979 27.8457 11.8092 25.9515C9.92599 24.0626 8.88867 21.5544 8.88867 18.8887C8.88867 18.6732 9.06367 18.498 9.27914 18.498C9.49483 18.498 9.66983 18.673 9.66983 18.8887C9.66983 23.972 13.8055 28.1075 18.8887 28.1075C23.972 28.1075 28.1075 23.972 28.1075 18.8887C28.1075 13.8053 23.9718 9.66983 18.8887 9.66983C15.9298 9.66983 13.2267 11.0425 11.4912 13.3838L12.4357 13.0804C12.6411 13.0148 12.861 13.1272 12.9273 13.3326C12.9933 13.538 12.8802 13.7581 12.6748 13.8241L10.6787 14.466C10.5737 14.4999 10.4595 14.4874 10.3639 14.4325C10.2686 14.3774 10.2005 14.2844 10.1776 14.1765L9.73546 12.1268C9.68974 11.916 9.82362 11.7082 10.0347 11.6629C10.2456 11.6172 10.4534 11.7515 10.4987 11.9621L10.7422 13.0887C11.5723 11.9254 12.6473 10.9454 13.8863 10.2281C15.4 9.35177 17.1297 8.88867 18.8887 8.88867C21.5598 8.88867 24.0713 9.92883 25.9598 11.8175C27.8483 13.7062 28.8887 16.2175 28.8887 18.8887Z" fill="#757575" stroke="#757575" stroke-width="0.75"/>
</svg>
