<svg width="50" height="50" viewBox="0 0 50 50" fill="none" xmlns="http://www.w3.org/2000/svg">
<rect width="50" height="50" rx="24" fill="#EBF9EE"/>
<path d="M14.9332 29.5C15.1532 29.5 15.3332 29.32 15.3332 29.1V15.5C15.3332 14.84 15.8732 14.3 16.5332 14.3H25.7333C25.9533 14.3 26.1333 14.12 26.1333 13.9C26.1333 13.68 25.9533 13.5 25.7333 13.5H16.5332C15.4292 13.5 14.5332 14.396 14.5332 15.5V29.1C14.5332 29.32 14.7132 29.5 14.9332 29.5Z" fill="#34C759" stroke="#34C759" stroke-width="0.5"/>
<path d="M27.3326 14.3H30.1327C30.7927 14.3 31.3327 14.84 31.3327 15.5V26.7C31.3327 26.92 31.5127 27.1 31.7327 27.1C31.9527 27.1 32.1327 26.92 32.1327 26.7V15.5C32.1327 14.396 31.2367 13.5 30.1327 13.5H27.3326C27.1126 13.5 26.9326 13.68 26.9326 13.9C26.9326 14.12 27.1126 14.3 27.3326 14.3Z" fill="#34C759" stroke="#34C759" stroke-width="0.5"/>
<path d="M20.5332 35.0998H16.5332C15.8732 35.0998 15.3332 34.5598 15.3332 33.8998V30.6998C15.3332 30.4798 15.1532 30.2998 14.9332 30.2998C14.7132 30.2998 14.5332 30.4798 14.5332 30.6998V33.8998C14.5332 35.0038 15.4292 35.8998 16.5332 35.8998H20.5332C20.7532 35.8998 20.9332 35.7198 20.9332 35.4998C20.9332 35.2798 20.7532 35.0998 20.5332 35.0998Z" fill="#34C759" stroke="#34C759" stroke-width="0.5"/>
<path d="M35.1886 31.1921L28.6967 25.8481C28.1567 25.4041 27.3127 25.4041 26.7687 25.8481L20.2768 31.1921C20.1048 31.3321 20.0808 31.5841 20.2208 31.7561C20.3608 31.9281 20.6128 31.9521 20.7848 31.8121L27.2767 26.4681C27.5327 26.2561 27.9287 26.2561 28.1847 26.4681L34.6766 31.8121C34.7526 31.8721 34.8406 31.9041 34.9326 31.9041C35.0486 31.9041 35.1606 31.8561 35.2406 31.7601C35.3806 31.5881 35.3566 31.3361 35.1846 31.1961L35.1886 31.1921Z" fill="#34C759" stroke="#34C759" stroke-width="0.5"/>
<path d="M33.3324 31.3838C33.1124 31.3838 32.9324 31.5638 32.9324 31.7838V35.4999C32.9324 36.1599 32.3924 36.6999 31.7324 36.6999H23.7324C23.0724 36.6999 22.5324 36.1599 22.5324 35.4999V31.7838C22.5324 31.5638 22.3524 31.3838 22.1324 31.3838C21.9124 31.3838 21.7324 31.5638 21.7324 31.7838V35.4999C21.7324 36.6039 22.6284 37.4999 23.7324 37.4999H31.7324C32.8364 37.4999 33.7324 36.6039 33.7324 35.4999V31.7838C33.7324 31.5638 33.5524 31.3838 33.3324 31.3838Z" fill="#34C759" stroke="#34C759" stroke-width="0.5"/>
<path d="M29.733 35.9001C29.953 35.9001 30.133 35.7201 30.133 35.5001V33.5001C30.133 32.1761 29.057 31.1001 27.733 31.1001C26.409 31.1001 25.333 32.1761 25.333 33.5001V35.5001C25.333 35.7201 25.513 35.9001 25.733 35.9001C25.953 35.9001 26.133 35.7201 26.133 35.5001V33.5001C26.133 32.6161 26.849 31.9001 27.733 31.9001C28.617 31.9001 29.333 32.6161 29.333 33.5001V35.5001C29.333 35.7201 29.513 35.9001 29.733 35.9001Z" fill="#34C759" stroke="#34C759" stroke-width="0.5"/>
<path d="M28.5324 34.7C28.5324 35.233 27.7324 35.233 27.7324 34.7C27.7324 34.167 28.5324 34.167 28.5324 34.7Z" fill="#34C759" stroke="#34C759" stroke-width="0.5"/>
<path d="M28.5334 16.7H18.1334C17.9134 16.7 17.7334 16.8799 17.7334 17.1C17.7334 17.32 17.9134 17.5 18.1334 17.5H28.5334C28.7534 17.5 28.9334 17.32 28.9334 17.1C28.9334 16.8799 28.7534 16.7 28.5334 16.7Z" fill="#34C759" stroke="#34C759" stroke-width="0.5"/>
<path d="M28.5334 19.8999H18.1334C17.9134 19.8999 17.7334 20.0799 17.7334 20.2999C17.7334 20.5199 17.9134 20.6999 18.1334 20.6999H28.5334C28.7534 20.6999 28.9334 20.5199 28.9334 20.2999C28.9334 20.0799 28.7534 19.8999 28.5334 19.8999Z" fill="#34C759" stroke="#34C759" stroke-width="0.5"/>
<path d="M28.9334 23.5001C28.9334 23.2801 28.7534 23.1001 28.5334 23.1001H18.1334C17.9134 23.1001 17.7334 23.2801 17.7334 23.5001C17.7334 23.7201 17.9134 23.9001 18.1334 23.9001H28.5334C28.7534 23.9001 28.9334 23.7201 28.9334 23.5001Z" fill="#34C759" stroke="#34C759" stroke-width="0.5"/>
<path d="M18.1334 26.3003C17.9134 26.3003 17.7334 26.4803 17.7334 26.7003C17.7334 26.9203 17.9134 27.1003 18.1334 27.1003H22.1334C22.3534 27.1003 22.5334 26.9203 22.5334 26.7003C22.5334 26.4803 22.3534 26.3003 22.1334 26.3003H18.1334Z" fill="#34C759" stroke="#34C759" stroke-width="0.5"/>
</svg>
