<svg width="50" height="50" viewBox="0 0 50 50" fill="none" xmlns="http://www.w3.org/2000/svg">
<rect width="50" height="50" rx="24" fill="#EBF9EE"/>
<path d="M25.8373 17.239H26.0609C26.4908 17.2796 26.8872 17.492 27.1586 17.8284C27.2155 17.9036 27.2633 17.9859 27.3009 18.0723L27.931 17.5642L27.7887 17.3406C27.3852 16.8395 26.8008 16.5184 26.1626 16.4462C24.9023 16.3039 23.7641 17.056 23.6218 18.1333C23.5598 18.6212 23.7001 19.112 24.008 19.4952C24.1716 19.7046 24.3708 19.8844 24.5975 20.0237C24.6981 19.8743 24.8292 19.7503 24.9837 19.6578L25.2886 19.4749C25.0335 19.3804 24.8089 19.2188 24.6381 19.0074C24.4643 18.798 24.383 18.5256 24.4145 18.2553C24.4958 17.6658 25.1056 17.239 25.8373 17.239Z" fill="#34C759" stroke="#34C759" stroke-width="0.3"/>
<path d="M30.5335 22.8488H30.6758C31.0762 22.8499 31.4614 22.6964 31.7531 22.422C32.5051 21.7309 32.5051 20.4097 31.7734 19.4341C31.4085 18.927 30.8485 18.5946 30.2286 18.5194C29.7824 18.4768 29.3403 18.6241 29.009 18.926C28.2569 19.6171 28.2569 20.9383 28.9887 21.9138C29.3495 22.4291 29.9105 22.7686 30.5335 22.8488ZM29.5578 19.556C29.7011 19.4219 29.8901 19.3487 30.0863 19.3528H30.1676C30.5538 19.4097 30.8983 19.6231 31.1229 19.9422C31.6108 20.5724 31.6311 21.4261 31.2042 21.8326C31.0406 21.986 30.818 22.0602 30.5944 22.0358C30.2011 21.984 29.8474 21.7706 29.6188 21.4464C29.1513 20.8163 29.1106 19.9626 29.5578 19.556Z" fill="#34C759" stroke="#34C759" stroke-width="0.3"/>
<path d="M30.0446 15.5721L30.3495 14.4948C30.381 14.3901 30.3678 14.2763 30.3139 14.1808C30.261 14.0852 30.1706 14.0151 30.0649 13.9867L22.8897 12.2386C22.7485 12.204 22.6001 12.2467 22.4995 12.3514C22.3988 12.4561 22.3612 12.6075 22.4019 12.7467C23.3166 15.8566 22.1986 19.4138 21.9141 20.1862L22.219 20.0439C22.4273 19.9332 22.655 19.8641 22.8897 19.8407C23.2759 18.5398 23.906 15.816 23.3572 13.1939L29.4553 14.6981L28.8658 16.7714C29.2815 16.3943 29.6746 15.9939 30.0446 15.5721Z" fill="#34C759" stroke="#34C759" stroke-width="0.3"/>
<path d="M36.6102 21.3853C36.6691 21.2877 36.6833 21.1698 36.6508 21.06C35.8174 18.2142 32.6464 14.4744 32.5041 14.3116C32.4157 14.2089 32.2815 14.1571 32.1474 14.1734C32.0122 14.1896 31.8943 14.2719 31.8333 14.3929C30.3902 17.4216 25.4509 20.3077 25.3898 20.3486C25.2719 20.4167 25.1957 20.5386 25.1865 20.6738L25.8573 20.999C26.4264 20.6535 30.5324 18.1532 32.26 15.2671C33.073 16.2834 34.9838 18.7836 35.7357 20.8364C34.7194 21.0803 32.3006 21.7715 31.1014 23.3366C31.0526 23.4016 31.0242 23.4789 31.0201 23.5602L31.6909 23.8854L31.7519 23.8244C33.0527 22.117 36.305 21.5479 36.3455 21.5275C36.4482 21.5153 36.5427 21.4645 36.6098 21.3852L36.6102 21.3853Z" fill="#34C759" stroke="#34C759" stroke-width="0.3"/>
<path d="M23.5199 22.6863C23.2313 22.544 22.8939 22.544 22.6053 22.6863L15.5316 26.2637C15.2805 26.3826 15.122 26.6367 15.125 26.9142V34.0691C15.125 34.4654 15.4401 34.7896 15.8365 34.8008H30.2682C30.6646 34.7896 30.9797 34.4654 30.9797 34.0691V26.9142C30.9776 26.6377 30.8201 26.3867 30.5731 26.2637L23.5199 22.6863ZM21.6296 33.7641V29.2922H24.4754V33.7641H21.6296ZM30.1665 33.9674H25.2882V28.8859C25.2882 28.7781 25.2455 28.6745 25.1693 28.5982C25.0931 28.522 24.9894 28.4793 24.8817 28.4793H21.2231C20.9985 28.4793 20.8165 28.6613 20.8165 28.8859V33.9674H15.9382V26.9548L22.9508 23.418C23.0087 23.3885 23.0758 23.3885 23.1337 23.418L30.1666 26.9548L30.1665 33.9674Z" fill="#34C759" stroke="#34C759" stroke-width="0.3"/>
<path d="M13.0928 36.5935C13.0928 36.7013 13.1355 36.8049 13.2117 36.8812C13.2879 36.9574 13.3916 37.0001 13.4993 37.0001H32.6062C32.8308 37.0001 33.0127 36.8181 33.0127 36.5935C33.0127 36.3689 32.8308 36.187 32.6062 36.187H13.4993C13.2747 36.187 13.0928 36.3689 13.0928 36.5935Z" fill="#34C759" stroke="#34C759" stroke-width="0.3"/>
<path d="M26.9146 32.9512H28.5407C28.7562 32.9512 28.9635 32.8658 29.116 32.7134C29.2684 32.5609 29.3538 32.3536 29.3538 32.1381V30.512C29.3538 30.2966 29.2684 30.0892 29.116 29.9368C28.9635 29.7843 28.7562 29.699 28.5407 29.699H26.9146C26.4654 29.699 26.1016 30.0628 26.1016 30.512V32.1381C26.1016 32.3536 26.1869 32.5609 26.3394 32.7134C26.4918 32.8658 26.6992 32.9512 26.9146 32.9512ZM26.9146 30.512H28.5407V32.1381H26.9146V30.512Z" fill="#34C759" stroke="#34C759" stroke-width="0.3"/>
<path d="M19.1911 29.699H17.565C17.1158 29.699 16.752 30.0628 16.752 30.512V32.1381C16.752 32.3536 16.8373 32.5609 16.9898 32.7134C17.1422 32.8658 17.3495 32.9512 17.565 32.9512H19.1911C19.4066 32.9512 19.6139 32.8658 19.7663 32.7134C19.9188 32.5609 20.0041 32.3536 20.0041 32.1381V30.512C20.0041 30.2966 19.9188 30.0892 19.7663 29.9368C19.6139 29.7844 19.4066 29.699 19.1911 29.699ZM17.565 32.1381V30.512H19.1911V32.1381H17.565Z" fill="#34C759" stroke="#34C759" stroke-width="0.3"/>
<path d="M13.7434 25.6131C13.7911 25.7107 13.8765 25.7849 13.9791 25.8195C14.0828 25.854 14.1956 25.8449 14.2922 25.7961L22.9511 21.4665C23.0141 21.4299 23.0914 21.4299 23.1544 21.4665L31.8133 25.7961L31.9963 25.8367C32.1873 25.8398 32.354 25.7097 32.3977 25.5237C32.4414 25.3387 32.351 25.1477 32.1792 25.0644L23.5203 20.7553C23.2276 20.5998 22.8779 20.5998 22.5852 20.7553L13.9263 25.0644C13.8287 25.1121 13.7545 25.1975 13.72 25.3001C13.6854 25.4038 13.6946 25.5166 13.7434 25.6131Z" fill="#34C759" stroke="#34C759" stroke-width="0.3"/>
<path d="M32.4635 10.2057L32.0773 10.9578C32.0285 11.0544 32.0194 11.1672 32.054 11.2708C32.0885 11.3735 32.1627 11.4589 32.2603 11.5066L32.4432 11.5473C32.5936 11.5524 32.7339 11.4741 32.8091 11.344L33.1953 10.5919C33.2959 10.3897 33.2146 10.1437 33.0123 10.0431C32.8101 9.94251 32.5641 10.0238 32.4635 10.2261L32.4635 10.2057Z" fill="#34C759" stroke="#34C759" stroke-width="0.3"/>
<path d="M34.3139 13.011L33.5212 13.2549C33.3322 13.3169 33.2163 13.5069 33.2458 13.7031C33.2763 13.8993 33.444 14.0456 33.6431 14.0476H33.7651L34.5578 13.8037C34.753 13.7234 34.8536 13.507 34.7896 13.3057C34.7265 13.1045 34.5202 12.9856 34.3139 13.0313L34.3139 13.011Z" fill="#34C759" stroke="#34C759" stroke-width="0.3"/>
<path d="M29.8007 11.8929H29.9226C30.0283 11.8644 30.1188 11.7943 30.1716 11.6987C30.2255 11.6032 30.2387 11.4894 30.2072 11.3847L29.943 10.5513C29.8586 10.3684 29.6533 10.2749 29.4602 10.3308C29.2671 10.3867 29.1441 10.5757 29.1706 10.7749L29.4145 11.6083C29.4673 11.777 29.6238 11.8918 29.8007 11.8929Z" fill="#34C759" stroke="#34C759" stroke-width="0.3"/>
</svg>
