<svg width="50" height="50" viewBox="0 0 50 50" fill="none" xmlns="http://www.w3.org/2000/svg">
<rect width="50" height="50" rx="24" fill="#E8F1FB"/>
<path fill-rule="evenodd" clip-rule="evenodd" d="M25.3896 18.2383C23.8154 18.2383 22.5459 16.9688 22.5459 15.3945C22.5459 13.7695 23.8154 12.5 25.3896 12.5C26.9639 12.5 28.2334 13.7695 28.2334 15.3945C28.2334 16.9688 26.9639 18.2383 25.3896 18.2383ZM25.3896 13.2109C24.2217 13.2109 23.2568 14.1758 23.2568 15.3945C23.2568 16.5625 24.2217 17.5273 25.3896 17.5273C26.6084 17.5273 27.5732 16.5625 27.5732 15.3945C27.5732 14.1758 26.6084 13.2109 25.3896 13.2109Z" fill="#1976D2" stroke="#1976D2" stroke-width="0.5"/>
<path fill-rule="evenodd" clip-rule="evenodd" d="M26.964 38.5C25.9991 38.5 25.1866 37.6875 25.1866 36.6719C25.1866 36.5703 25.1866 36.3672 25.1866 36.0625C25.1866 35.0977 25.2374 32.3555 25.1358 31.8477L21.7335 28.75C20.8194 28.0898 21.1241 26.1602 21.1749 25.957C21.3273 25.1445 21.5304 24.0273 21.6827 23.2656C21.5812 23.3164 21.5304 23.418 21.5304 23.4688L20.464 26.7695C20.2608 27.4805 19.6007 27.9375 18.8898 27.9375C18.6866 27.9375 18.5343 27.8867 18.3819 27.8359C17.5187 27.582 17.0108 26.6172 17.3155 25.7539L18.6358 21.5391C18.7882 21.082 20.1593 20.2188 20.8702 19.8125C21.6827 19.3047 23.2569 18.543 24.5265 18.543C25.6437 18.543 26.3546 19.1016 26.5577 20.1172C26.6593 20.5742 26.3546 23.0117 26.2023 24.0273C26.1007 24.8906 25.9483 25.7539 25.8468 26.3633C25.7452 26.9219 25.6944 27.2266 25.6437 27.4297L28.1319 29.6641C28.1827 29.7148 28.8429 30.3242 28.7921 31.1875V36.6719C28.7921 37.6875 27.9796 38.5 26.964 38.5ZM22.1905 21.9453C22.2921 21.9453 22.3937 21.9961 22.4444 22.0977C22.546 22.1992 22.546 22.3516 22.4952 22.5547C22.4952 22.6562 22.4952 22.8086 22.4444 22.9609C22.3937 23.2656 22.2921 23.7227 22.2413 24.2305C22.0382 25.1445 21.8858 26.0586 21.8858 26.0586C21.7843 26.6172 21.6827 27.8867 22.1398 28.1914C22.1905 28.1914 22.1905 28.1914 22.1905 28.1914L25.6944 31.3906C25.8468 31.543 25.9991 31.8477 25.8976 36.0625C25.8976 36.3672 25.8976 36.5703 25.8976 36.6719C25.8976 36.9766 25.9991 37.2305 26.2023 37.4336C26.4054 37.6875 26.7101 37.7891 26.964 37.7891C27.5733 37.7891 28.0812 37.2812 28.0812 36.6719V31.1875C28.0812 31.1367 28.0812 31.1367 28.0812 31.1367C28.1319 30.6289 27.6241 30.2227 27.6241 30.1719L24.9835 27.7852C24.8819 27.6328 24.8312 27.4805 24.9327 27.3281C25.0343 27.0742 25.2882 25.7539 25.5421 23.8242C25.796 21.793 25.8976 20.4727 25.8976 20.2695C25.6944 19.5586 25.2882 19.2539 24.5265 19.2539C22.5968 19.2539 19.6007 21.3867 19.3468 21.793L17.9757 25.957C17.8233 26.4648 18.0773 27.0234 18.5851 27.1758C18.6866 27.2266 18.7882 27.2266 18.8898 27.2266C19.296 27.2266 19.6515 26.9219 19.8038 26.5664L20.8702 23.2656C21.0226 22.707 21.9366 22.0469 22.0382 21.9961C22.089 21.9961 22.1398 21.9453 22.1905 21.9453Z" fill="#1976D2" stroke="#1976D2" stroke-width="0.5"/>
<path fill-rule="evenodd" clip-rule="evenodd" d="M19.4982 38.449C19.2951 38.449 19.1428 38.449 18.9396 38.3474C18.4826 38.1951 18.1271 37.8396 17.924 37.3826C17.7209 36.9763 17.7209 36.4177 17.8732 35.9607L20.4123 28.8513C20.4123 28.7498 20.5139 28.6482 20.6662 28.6482C20.7678 28.5974 20.8693 28.6482 20.9709 28.7498L22.5959 30.4256L23.2053 31.0857C23.3068 31.1873 23.3576 31.2888 23.3068 31.4412L21.2756 37.1795C21.1232 37.6365 20.7678 38.0427 20.3615 38.2459C20.0568 38.3982 19.8029 38.449 19.4982 38.449ZM20.8693 29.6638L18.5334 36.2146C18.4318 36.5193 18.4318 36.824 18.5842 37.1287C18.6857 37.3826 18.8889 37.5857 19.1936 37.6873C19.4475 37.7888 19.7521 37.7888 20.0061 37.6365C20.3107 37.4842 20.5139 37.2302 20.6154 36.9256L22.5451 31.3904L22.0881 30.9334L20.8693 29.6638Z" fill="#1976D2" stroke="#1976D2" stroke-width="0.5"/>
<path fill-rule="evenodd" clip-rule="evenodd" d="M31.1284 27.9883C30.8745 27.9883 30.6206 27.9375 30.4683 27.7852L26.812 25.1446C26.6597 25.043 26.6089 24.8907 26.6597 24.7891L27.1167 22.0469C27.1167 21.9453 27.2183 21.8438 27.3198 21.793C27.4214 21.7422 27.5737 21.7422 27.6753 21.8438L32.144 25.2461C32.7026 25.7032 32.8042 26.5664 32.3472 27.2774C32.0425 27.7344 31.5854 27.9883 31.1284 27.9883ZM27.3706 24.6875L30.8745 27.2266C30.9253 27.2774 31.0269 27.2774 31.1284 27.2774C31.3315 27.2774 31.5854 27.125 31.7378 26.8711C31.9917 26.5157 31.9917 26.0078 31.7378 25.8047L27.7261 22.7578L27.3706 24.6875Z" fill="#1976D2" stroke="#1976D2" stroke-width="0.5"/>
<path fill-rule="evenodd" clip-rule="evenodd" d="M34.1748 38.5H15.6904C15.5381 38.5 15.335 38.3477 15.335 38.1445C15.335 37.9414 15.5381 37.7891 15.6904 37.7891H34.1748C34.3271 37.7891 34.5303 37.9414 34.5303 38.1445C34.5303 38.3477 34.3271 38.5 34.1748 38.5Z" fill="#1976D2" stroke="#1976D2" stroke-width="0.5"/>
</svg>
