<svg width="14" height="14" viewBox="0 0 14 14" fill="none" xmlns="http://www.w3.org/2000/svg">
<path fill-rule="evenodd" clip-rule="evenodd" d="M1.47599 0H4.41182C4.81807 0 5.18693 0.165741 5.45478 0.433025C5.72208 0.700323 5.88781 1.06918 5.88781 1.47543V3.5307C5.88781 3.93695 5.72207 4.30581 5.45478 4.57311C5.18749 4.8404 4.81863 5.00613 4.41182 5.00613H1.47599C1.06973 5.00613 0.70088 4.84039 0.433025 4.57311C0.165727 4.30581 0 3.93695 0 3.5307V1.47543C0 1.06918 0.165741 0.700323 0.433025 0.433025C0.700323 0.165727 1.06918 0 1.47599 0ZM11.6975 7.83536H8.76164C8.35539 7.83536 7.98653 7.66962 7.71868 7.40234C7.45138 7.13504 7.28565 6.76619 7.28565 6.35993V1.47597C7.28565 1.06972 7.4514 0.700866 7.71868 0.433568C7.98598 0.16627 8.35483 0.000542858 8.76109 0.000542858H11.6969C12.1032 0.000542858 12.472 0.166284 12.7399 0.433568C13.0072 0.700866 13.1729 1.06972 13.1729 1.47597V6.35993C13.1729 6.76619 13.0072 7.13504 12.7399 7.40234C12.4726 7.66964 12.1037 7.83536 11.6969 7.83536H11.6975ZM8.76164 13.3437H11.6975C11.9224 13.3437 12.1272 13.2517 12.2762 13.1027C12.4246 12.9542 12.5172 12.7489 12.5172 12.524V10.4687C12.5172 10.2438 12.4252 10.039 12.2762 9.89005C12.1277 9.74161 11.9224 9.64898 11.6975 9.64898H8.76164C8.53676 9.64898 8.33196 9.74105 8.18296 9.89005C8.03452 10.0385 7.94189 10.2438 7.94189 10.4687V12.524C7.94189 12.7489 8.03397 12.9537 8.18296 13.1027C8.3314 13.2511 8.53676 13.3437 8.76164 13.3437ZM11.6975 14H8.76164C8.35539 14 7.98653 13.8343 7.71868 13.567C7.45138 13.2997 7.28565 12.9308 7.28565 12.5246V10.4693C7.28565 10.063 7.4514 9.69419 7.71868 9.42689C7.98598 9.1596 8.35483 8.99387 8.76164 8.99387H11.6975C12.1032 8.99387 12.4726 9.15961 12.7399 9.42689C13.0072 9.69419 13.1729 10.063 13.1729 10.4693V12.5246C13.1729 12.9308 13.0072 13.2997 12.7399 13.567C12.4726 13.8343 12.1037 14 11.6975 14ZM1.47599 6.16464H4.41182C4.81807 6.16464 5.18693 6.33038 5.45478 6.59766C5.72208 6.86496 5.88781 7.23381 5.88781 7.64007V12.524C5.88781 12.9303 5.72207 13.2991 5.45478 13.5664C5.1875 13.8337 4.81863 13.9995 4.41182 13.9995H1.47599C1.06973 13.9995 0.70088 13.8337 0.433025 13.5664C0.165727 13.2991 0 12.9303 0 12.524V7.64007C0 7.23381 0.165741 6.86496 0.433025 6.59766C0.700323 6.33036 1.06918 6.16464 1.47599 6.16464ZM4.41182 0.656252H1.47599C1.2511 0.656252 1.04631 0.748327 0.897307 0.897321C0.748865 1.04576 0.656237 1.25112 0.656237 1.476V3.53127C0.656237 3.75616 0.748312 3.96095 0.897307 4.10995C1.04575 4.25839 1.2511 4.35102 1.47599 4.35102H4.41182C4.6367 4.35102 4.8415 4.25895 4.9905 4.10995C5.13894 3.96151 5.23157 3.75616 5.23157 3.53127V1.476C5.23157 1.25112 5.1395 1.04632 4.9905 0.897321C4.84206 0.74888 4.6367 0.656252 4.41182 0.656252Z" fill="white"/>
</svg>
