<svg width="15" height="17" viewBox="0 0 15 17" fill="none" xmlns="http://www.w3.org/2000/svg">
<path d="M0.566471 10.9667C0.713139 10.9667 0.833138 10.8467 0.833138 10.7V1.63338C0.833138 1.19339 1.19314 0.833382 1.63314 0.833382H7.76656C7.91322 0.833382 8.03322 0.713383 8.03322 0.566715C8.03322 0.420048 7.91322 0.300049 7.76656 0.300049H1.63314C0.897138 0.300049 0.299805 0.897382 0.299805 1.63338V10.7C0.299805 10.8467 0.419804 10.9667 0.566471 10.9667Z" fill="white" stroke="white" stroke-width="0.6"/>
<path d="M8.83307 0.833382H10.6998C11.1398 0.833382 11.4998 1.19339 11.4998 1.63338V9.10005C11.4998 9.24672 11.6198 9.36672 11.7665 9.36672C11.9132 9.36672 12.0332 9.24672 12.0332 9.10005V1.63338C12.0332 0.897382 11.4358 0.300049 10.6998 0.300049H8.83307C8.68641 0.300049 8.56641 0.420048 8.56641 0.566715C8.56641 0.713383 8.68641 0.833382 8.83307 0.833382Z" fill="white" stroke="white" stroke-width="0.6"/>
<path d="M4.2998 14.7001H1.63314C1.19314 14.7001 0.833138 14.3401 0.833138 13.9001V11.7668C0.833138 11.6201 0.713139 11.5001 0.566471 11.5001C0.419804 11.5001 0.299805 11.6201 0.299805 11.7668V13.9001C0.299805 14.6361 0.897138 15.2335 1.63314 15.2335H4.2998C4.44647 15.2335 4.56647 15.1135 4.56647 14.9668C4.56647 14.8201 4.44647 14.7001 4.2998 14.7001Z" fill="white" stroke="white" stroke-width="0.6"/>
<path d="M14.0704 12.0946L9.74246 8.53194C9.38245 8.23594 8.8198 8.23594 8.45713 8.53194L4.1292 12.0946C4.01453 12.1879 3.99853 12.3559 4.09186 12.4706C4.18519 12.5853 4.35319 12.6013 4.46786 12.5079L8.79579 8.94527C8.96646 8.80394 9.23046 8.80394 9.40113 8.94527L13.7291 12.5079C13.7797 12.5479 13.8384 12.5693 13.8997 12.5693C13.9771 12.5693 14.0517 12.5373 14.1051 12.4733C14.1984 12.3586 14.1824 12.1906 14.0677 12.0973L14.0704 12.0946Z" fill="white" stroke="white" stroke-width="0.6"/>
<path d="M12.8329 12.2227C12.6863 12.2227 12.5663 12.3427 12.5663 12.4893V14.9667C12.5663 15.4067 12.2063 15.7667 11.7663 15.7667H6.43294C5.99295 15.7667 5.63294 15.4067 5.63294 14.9667V12.4893C5.63294 12.3427 5.51294 12.2227 5.36628 12.2227C5.21961 12.2227 5.09961 12.3427 5.09961 12.4893V14.9667C5.09961 15.7027 5.69694 16.3001 6.43294 16.3001H11.7663C12.5023 16.3001 13.0996 15.7027 13.0996 14.9667V12.4893C13.0996 12.3427 12.9796 12.2227 12.8329 12.2227Z" fill="white" stroke="white" stroke-width="0.6"/>
<path d="M10.4328 15.2334C10.5795 15.2334 10.6995 15.1134 10.6995 14.9668V13.6334C10.6995 12.7508 9.98218 12.0334 9.09951 12.0334C8.21684 12.0334 7.49951 12.7508 7.49951 13.6334V14.9668C7.49951 15.1134 7.61951 15.2334 7.76618 15.2334C7.91285 15.2334 8.03285 15.1134 8.03285 14.9668V13.6334C8.03285 13.0441 8.51018 12.5668 9.09951 12.5668C9.68884 12.5668 10.1662 13.0441 10.1662 13.6334V14.9668C10.1662 15.1134 10.2862 15.2334 10.4328 15.2334Z" fill="white" stroke="white" stroke-width="0.6"/>
<path d="M9.63294 14.4335C9.63294 14.7888 9.09961 14.7888 9.09961 14.4335C9.09961 14.0782 9.63294 14.0782 9.63294 14.4335Z" fill="white" stroke="white" stroke-width="0.6"/>
<path d="M9.6331 2.43347H2.69977C2.5531 2.43347 2.43311 2.55347 2.43311 2.70014C2.43311 2.84681 2.5531 2.9668 2.69977 2.9668H9.6331C9.77977 2.9668 9.89977 2.84681 9.89977 2.70014C9.89977 2.55347 9.77977 2.43347 9.6331 2.43347Z" fill="white" stroke="white" stroke-width="0.6"/>
<path d="M9.6331 4.56665H2.69977C2.5531 4.56665 2.43311 4.68665 2.43311 4.83332C2.43311 4.97998 2.5531 5.09998 2.69977 5.09998H9.6331C9.77977 5.09998 9.89977 4.97998 9.89977 4.83332C9.89977 4.68665 9.77977 4.56665 9.6331 4.56665Z" fill="white" stroke="white" stroke-width="0.6"/>
<path d="M9.89977 6.96686C9.89977 6.82019 9.77977 6.7002 9.6331 6.7002H2.69977C2.5531 6.7002 2.43311 6.82019 2.43311 6.96686C2.43311 7.11353 2.5531 7.23353 2.69977 7.23353H9.6331C9.77977 7.23353 9.89977 7.11353 9.89977 6.96686Z" fill="white" stroke="white" stroke-width="0.6"/>
<path d="M2.69977 8.83337C2.5531 8.83337 2.43311 8.95337 2.43311 9.10004C2.43311 9.24671 2.5531 9.36671 2.69977 9.36671H5.36644C5.51311 9.36671 5.63311 9.24671 5.63311 9.10004C5.63311 8.95337 5.51311 8.83337 5.36644 8.83337H2.69977Z" fill="white" stroke="white" stroke-width="0.6"/>
</svg>
