<svg width="17" height="17" viewBox="0 0 17 17" fill="none" xmlns="http://www.w3.org/2000/svg">
<path fill-rule="evenodd" clip-rule="evenodd" d="M13.0331 8.14445C11.1007 7.98487 9.67327 9.92128 10.3984 11.7214L10.4998 11.9724L8.35723 14.115C8.20633 14.2659 8.13155 14.4629 8.13155 14.6599H8.13355C8.13355 15.0885 8.47808 15.4311 8.90274 15.4311L8.90207 15.4291C9.0997 15.4291 9.29735 15.3543 9.44691 15.2047L11.5895 13.0621C12.1951 13.3065 12.6539 13.44 13.3423 13.2998C14.6309 13.0374 15.5262 11.8469 15.4175 10.5288L13.9072 12.0392L13.9065 12.0385C13.6996 12.2455 13.4124 12.3223 13.1313 12.2468C11.5275 11.8175 11.7445 12.0338 11.3152 10.4307C11.2397 10.1503 11.3179 9.85981 11.5228 9.65481L13.0331 8.14445ZM6.2179 0.250171C9.1991 0.250171 10.7021 3.87186 8.5923 5.98166C6.4825 8.09146 2.86081 6.5886 2.86081 3.60726C2.86081 1.75368 4.36381 0.25 6.21807 0.25L6.2179 0.250171ZM8.01199 1.81392C6.41819 0.219455 3.68128 1.35454 3.68128 3.60801C3.68128 5.86148 6.41891 6.99586 8.01267 5.4021C9.00288 4.41123 9.00286 2.8048 8.01199 1.81392ZM6.51634 12.9138C7.05652 12.9138 7.05652 13.7344 6.51634 13.7344H1.93864C0.435639 13.7344 -0.00843993 11.9009 0.386907 10.665C1.08331 8.48498 4.05064 7.74724 6.21719 7.74724C7.2114 7.74724 8.21093 7.88879 9.09772 8.17257C9.61119 8.33616 9.3628 9.11402 8.85068 8.95111C7.05385 8.37955 4.64612 8.43698 2.95817 9.18814C1.85447 9.67957 1.06596 10.4541 1.06596 11.5731C1.06596 12.108 1.25893 12.9139 1.93799 12.9139L6.51634 12.9138ZM11.8152 7.46678C12.2779 7.32589 13.401 7.183 13.797 7.53956C14.0767 7.79129 14.0988 8.23931 13.8224 8.51573L12.1096 10.2285L12.3687 11.1939L13.3342 11.453L15.0474 9.73977C15.4233 9.36385 16.079 9.55415 16.1825 10.0883C16.6759 12.6289 14.2729 14.7869 11.7971 14.0158L10.0276 15.7853C9.7178 16.0951 9.30984 16.25 8.90255 16.25V16.248C8.01917 16.248 7.31275 15.5396 7.31275 14.6602H7.31475C7.31475 14.2516 7.46899 13.8436 7.77746 13.5351L9.54694 11.7657C8.9834 9.95823 9.99297 8.02312 11.8152 7.46708L11.8152 7.46678Z" fill="white" stroke="white" stroke-width="0.5"/>
</svg>
