<svg width="17" height="17" viewBox="0 0 17 17" fill="none" xmlns="http://www.w3.org/2000/svg">
<path fill-rule="evenodd" clip-rule="evenodd" d="M8.2998 6.57664C9.01083 6.57664 9.58886 5.99826 9.58886 5.28758C9.58886 4.5769 9.01066 3.9987 8.2998 3.9987C7.5893 3.9987 7.0111 4.5769 7.0111 5.28758C7.0111 5.99826 7.5893 6.57664 8.2998 6.57664ZM8.2998 7.20157C7.24455 7.20157 6.38617 6.34284 6.38617 5.28758C6.38617 4.23215 7.24455 3.37377 8.2998 3.37377C9.35506 3.37377 10.214 4.23215 10.214 5.28758C10.2138 6.34284 9.35506 7.20157 8.2998 7.20157ZM5.14716 11.4784C5.14716 12.1081 6.53194 12.6012 8.29963 12.6012C10.0675 12.6012 11.4521 12.1081 11.4521 11.4784C11.4521 9.74031 10.0381 8.32612 8.29963 8.32612C6.56169 8.3263 5.14716 9.74031 5.14716 11.4784ZM8.2998 7.7012C10.3827 7.7012 12.0774 9.39556 12.0774 11.4784C12.0774 11.8872 11.8539 12.4565 10.7899 12.8482C10.128 13.0919 9.24376 13.2262 8.2998 13.2262C7.35602 13.2262 6.47174 13.0918 5.80971 12.8482C4.74571 12.4567 4.52223 11.8872 4.52223 11.4784C4.52223 9.39573 6.21694 7.7012 8.2998 7.7012ZM16.2998 8.30005C16.2998 10.437 15.4675 12.446 13.9565 13.957C12.4458 15.4679 10.4366 16.3 8.2998 16.3C6.15849 16.3 4.1472 15.4656 2.63624 13.9503C1.12966 12.4392 0.299805 10.4326 0.299805 8.30005C0.299805 8.12767 0.439806 7.9875 0.612182 7.9875C0.784733 7.9875 0.924734 8.1275 0.924734 8.30005C0.924734 12.3667 4.2333 15.6751 8.2998 15.6751C12.3665 15.6751 15.6749 12.3667 15.6749 8.30005C15.6749 4.23337 12.3663 0.924978 8.2998 0.924978C5.93274 0.924978 3.77025 2.02311 2.38179 3.89615L3.13745 3.65342C3.30177 3.60092 3.47765 3.69087 3.53067 3.8552C3.58353 4.01952 3.49305 4.19557 3.32872 4.24842L1.73184 4.76188C1.64784 4.789 1.55649 4.77903 1.48001 4.7351C1.40371 4.691 1.34929 4.61663 1.33091 4.53035L0.977234 2.89059C0.940659 2.72189 1.04776 2.55564 1.21664 2.51941C1.38534 2.48284 1.55159 2.59029 1.58781 2.75881L1.78259 3.66007C2.44672 2.72941 3.30667 1.94541 4.29788 1.37158C5.50889 0.670526 6.89262 0.300049 8.2998 0.300049C10.4367 0.300049 12.4459 1.13218 13.9567 2.64314C15.4675 4.1541 16.2998 6.16311 16.2998 8.30005Z" fill="white" stroke="white" stroke-width="0.6"/>
</svg>
