<svg width="20" height="19" viewBox="0 0 20 19" fill="none" xmlns="http://www.w3.org/2000/svg">
<path d="M2.25634 0.300053C2.05177 0.299041 1.88467 0.464113 1.88366 0.668689V17.5618H0.669415H0.670428C0.466871 17.5628 0.301792 17.7279 0.300781 17.9314C0.301794 18.134 0.466866 18.299 0.670428 18.3H18.8263C18.9246 18.3 19.0188 18.2616 19.0886 18.1927C19.1575 18.1228 19.197 18.0297 19.198 17.9314C19.197 17.8332 19.1575 17.739 19.0886 17.6691C19.0187 17.6003 18.9246 17.5618 18.8263 17.5618H17.6121V0.668709C17.6111 0.466166 17.446 0.301085 17.2424 0.300074L2.25634 0.300053ZM2.62599 1.04137H16.8739V17.5619H12.8432V11.6122C12.8443 11.514 12.8048 11.4198 12.7359 11.35C12.667 11.2801 12.5718 11.2406 12.4736 11.2406H7.0251C6.82053 11.2416 6.65545 11.4077 6.65545 11.6123V17.5619H2.62481L2.62599 1.04137ZM5.33002 3.24201H5.32901C5.12545 3.24302 4.96037 3.40809 4.96037 3.61165V7.30293C4.96139 7.50547 5.12545 7.67055 5.32901 7.67156H8.42478C8.62833 7.67055 8.79341 7.50548 8.79341 7.30293V3.61165C8.79341 3.40809 8.62834 3.24302 8.42478 3.24201H5.33002ZM11.0751 3.24201H11.0741C10.8706 3.24302 10.7055 3.40809 10.7055 3.61165V7.30293C10.7055 7.50547 10.8705 7.67055 11.0741 7.67156H14.167C14.3716 7.67258 14.5377 7.5075 14.5387 7.30293V3.61165C14.5387 3.51342 14.4992 3.41924 14.4293 3.34936C14.3594 3.2805 14.2653 3.241 14.167 3.24202L11.0751 3.24201ZM5.70257 3.98332H8.0541V6.93028H5.70257V3.98332ZM11.4466 3.98332H13.7982V6.93028H11.4466V3.98332ZM7.39655 11.982H12.1015V17.563L7.39655 17.5619V11.982Z" fill="#757575" stroke="#757575" stroke-width="0.6"/>
</svg>
