<svg width="20" height="23" viewBox="0 0 20 23" fill="none" xmlns="http://www.w3.org/2000/svg">
<path d="M9.78849 11.3605L12.8221 13.1117C12.9319 12.7756 12.9367 12.4214 12.8489 12.0919C12.7305 11.6498 12.443 11.2516 12.0152 11.0053C11.5884 10.7589 11.1005 10.7083 10.6574 10.8267C10.3289 10.9145 10.0253 11.096 9.78843 11.3595L9.78849 11.3605ZM15.8643 19.3511H17.119V20.093H15.8643V19.3511ZM13.2805 19.3511H14.5352V20.093H13.2805V19.3511ZM15.5712 20.3871V21.6419H14.8293V20.3871H15.5712ZM15.5712 17.8033V19.058H14.8293V17.8033H15.5712ZM5.25467 9.46702H6.50939V10.209H5.25467V9.46702ZM2.67083 9.46702H3.92555V10.209H2.67083V9.46702ZM4.9616 10.5031V11.7578H4.21964V10.5031H4.9616ZM4.9616 7.91923V9.17395H4.21964V7.91923H4.9616ZM4.03728 17.0135C3.53406 17.2036 3.04992 17.3287 2.54958 17.4003C2.16572 17.4566 1.77134 17.4814 1.34832 17.4824L1.39416 17.6065C1.57749 18.0859 1.8229 18.5423 2.1237 18.9625C3.0719 18.9539 3.99719 18.7428 4.84126 18.3533C5.73886 17.9398 6.54479 17.3258 7.18838 16.5457L7.75844 17.0155C7.04227 17.8844 6.14756 18.5672 5.15064 19.0265C4.38768 19.3769 3.56456 19.5984 2.71664 19.6739C2.79971 19.7589 2.88565 19.8419 2.97446 19.9231C3.46336 20.369 4.01433 20.7262 4.60446 20.9878C5.07043 20.8283 5.48392 20.6555 5.86778 20.4473C6.26597 20.2315 6.6336 19.9775 6.99837 19.6634L7.48155 20.222C7.07381 20.5744 6.66225 20.8589 6.21823 21.0986C6.05112 21.1893 5.87925 21.2733 5.70068 21.3535C6.49419 21.5369 7.32779 21.5608 8.15008 21.4128C9.40194 20.4922 10.4332 19.3311 11.1932 18.0144C11.9285 16.7415 12.4098 15.3225 12.596 13.8357L9.31032 11.9384C8.1864 13.0203 6.86771 13.852 5.43821 14.402C4.03452 14.9424 2.52484 15.2098 0.994087 15.1716C0.972125 15.7025 1.01987 16.2296 1.13255 16.7405C1.5995 16.7481 2.02824 16.7271 2.44361 16.667C2.89049 16.603 3.32403 16.4913 3.77567 16.3203L4.03636 17.0126L4.03728 17.0135ZM13.3521 13.7496C13.1707 15.4016 12.6474 16.9771 11.8348 18.3857C11.0098 19.8151 9.8849 21.0727 8.51954 22.061L8.37153 22.125C7.31448 22.3303 6.2383 22.2796 5.22813 21.996C4.21787 21.7124 3.27157 21.1959 2.4761 20.4701C1.67878 19.7435 1.07718 18.8497 0.700973 17.8699C0.326669 16.8921 0.176747 15.8255 0.283695 14.7522L0.319025 14.3989L0.671377 14.4189C2.22499 14.5058 3.75855 14.2585 5.17563 13.7133C6.57837 13.1738 7.87022 12.3401 8.95607 11.2507C9.30747 10.6691 9.85653 10.2776 10.4667 10.1144C10.6214 10.0723 10.7799 10.0466 10.9403 10.0351L16.1809 0.958874C16.3757 0.619894 16.6917 0.391674 17.0431 0.298098C17.3917 0.205473 17.7784 0.243669 18.1164 0.438467L18.1202 0.439422C18.4583 0.63422 18.6855 0.950276 18.7801 1.30072C18.8736 1.65117 18.8345 2.03789 18.6387 2.37687L13.3975 11.4531C13.4672 11.5973 13.5235 11.7491 13.5655 11.9038C13.7259 12.5035 13.6667 13.1633 13.3516 13.7506L13.3521 13.7496ZM12.9291 10.7876L17.9985 2.00547C18.0911 1.84505 18.1093 1.65979 18.0644 1.49173C18.0195 1.32367 17.9107 1.17184 17.7493 1.07922C17.5888 0.986595 17.4036 0.967498 17.2346 1.01333C17.0665 1.05821 16.9147 1.16707 16.8221 1.32845L11.7526 10.1087C11.9703 10.165 12.1833 10.2509 12.3876 10.3684C12.591 10.4858 12.7725 10.6281 12.93 10.7876L12.9291 10.7876Z" fill="#757575" stroke="#757575" stroke-width="0.5"/>
</svg>
