<svg width="21" height="21" viewBox="0 0 21 21" fill="none" xmlns="http://www.w3.org/2000/svg">
<path d="M4.44911 6.00374C4.57226 5.83985 4.80374 5.80744 4.96763 5.92966C5.13152 6.05281 5.16392 6.28429 5.0417 6.44818L4.37504 7.33707H5.11577C5.25651 7.33707 5.38429 7.4167 5.44725 7.5417C5.51021 7.66762 5.49632 7.81763 5.41206 7.92965L4.30095 9.41113C4.17781 9.57502 3.94632 9.60742 3.78244 9.4852C3.61855 9.36206 3.58614 9.13057 3.70836 8.96669L4.37503 8.0778H3.63429C3.49355 8.0778 3.36577 7.99817 3.30282 7.87317C3.23986 7.74725 3.25374 7.59724 3.338 7.48521L4.44911 6.00374Z" fill="#757575"/>
<path fill-rule="evenodd" clip-rule="evenodd" d="M6.78271 0.300049C7.2938 0.300049 7.70862 0.714862 7.70862 1.22596V2.89261H8.07899C8.28362 2.89261 8.44936 3.05835 8.44936 3.26298V5.11482C8.44936 5.31945 8.28362 5.48519 8.07899 5.48519H7.70862V7.70741C7.70862 8.95924 7.0188 10.0481 5.99845 10.6184C6.14012 10.7805 6.22715 10.9934 6.22715 11.2259C6.22715 11.4342 6.15678 11.6268 6.04011 11.7814C6.15678 11.936 6.22715 12.1286 6.22715 12.337C6.22715 12.5453 6.15678 12.7379 6.04011 12.8925C6.15678 13.0472 6.22715 13.2398 6.22715 13.4481C6.22715 13.9592 5.81234 14.374 5.30124 14.374H4.74568V16.2259C4.74568 18.0666 6.23827 19.5591 8.07888 19.5591C9.91949 19.5591 11.4121 18.0665 11.4121 16.2259V10.6702C11.4121 8.21571 13.4019 6.22579 15.8565 6.22579C18.3111 6.22579 20.3009 8.21559 20.3009 10.6702V16.9664C20.3009 17.171 20.1352 17.3367 19.9306 17.3367C19.7259 17.3367 19.5602 17.171 19.5602 16.9664V10.6702C19.5602 8.62485 17.9019 6.96653 15.8565 6.96653C13.8111 6.96653 12.1528 8.62485 12.1528 10.6702V16.2259C12.1528 18.4759 10.3288 20.3 8.07864 20.3C5.82853 20.3 4.00446 18.476 4.00446 16.2259V14.374H3.4489C2.9378 14.374 2.52299 13.9592 2.52299 13.4481C2.52299 13.2398 2.59243 13.0472 2.7091 12.8925C2.59243 12.7379 2.52299 12.5453 2.52299 12.337C2.52299 12.1286 2.59243 11.9361 2.7091 11.7814C2.59243 11.6268 2.52299 11.4342 2.52299 11.2259C2.52299 10.9934 2.6091 10.7805 2.75076 10.6184C1.73132 10.0481 1.04152 8.95827 1.04152 7.70741V5.48519H0.67115C0.466522 5.48519 0.300781 5.31945 0.300781 5.11482V3.26298C0.300781 3.05835 0.466522 2.89261 0.67115 2.89261H1.04152V1.22596C1.04152 0.714862 1.45633 0.300049 1.96743 0.300049C2.47853 0.300049 2.89334 0.714862 2.89334 1.22596V2.89261H5.85629V1.22596C5.85629 0.714862 6.27111 0.300049 6.7822 0.300049H6.78271ZM3.4495 13.2631C3.34765 13.2631 3.26432 13.3464 3.26432 13.4483C3.26432 13.5501 3.34765 13.6335 3.4495 13.6335H5.30135C5.4032 13.6335 5.48653 13.5501 5.48653 13.4483C5.48653 13.3464 5.4032 13.2631 5.30135 13.2631H3.4495ZM3.4495 12.152C3.34765 12.152 3.26432 12.2353 3.26432 12.3372C3.26432 12.439 3.34765 12.5223 3.4495 12.5223H5.30135C5.4032 12.5223 5.48653 12.439 5.48653 12.3372C5.48653 12.2353 5.4032 12.152 5.30135 12.152H3.4495ZM3.4495 11.0409C3.34765 11.0409 3.26432 11.1242 3.26432 11.2261C3.26432 11.3279 3.34765 11.4112 3.4495 11.4112H5.30135C5.4032 11.4112 5.48653 11.3279 5.48653 11.2261C5.48653 11.1242 5.4032 11.0409 5.30135 11.0409H3.4495ZM1.78286 7.70767C1.78286 9.13915 2.94395 10.3004 4.37556 10.3004C5.80716 10.3004 6.96826 9.13927 6.96826 7.70767V5.48545H1.78309L1.78286 7.70767ZM1.04212 4.74471H7.70876V3.63361H1.04212V4.74471ZM1.96803 1.04102C1.86618 1.04102 1.78284 1.12436 1.78284 1.22621V2.89286H2.15321V1.22621C2.15321 1.12436 2.06988 1.04102 1.96803 1.04102ZM6.78271 1.04102C6.68085 1.04102 6.59752 1.12436 6.59752 1.22621V2.89286H6.96789V1.22621C6.96789 1.12436 6.88456 1.04102 6.78271 1.04102Z" stroke="#757575" stroke-width="0.6"/>
</svg>
