<svg width="18" height="13" viewBox="0 0 18 13" fill="none" xmlns="http://www.w3.org/2000/svg">
<path d="M15.8103 0H2.18991C0.980852 0.00075798 0.00155244 0.980134 0 2.18914V7.13599C0.00151596 8.3443 0.980891 9.32358 2.18991 9.32513H15.8108H15.8101C17.0191 9.32362 17.9984 8.34424 18 7.13599V2.18914C17.9985 0.980076 17.0193 0.000776221 15.8103 0ZM5.01361 8.11248V6.75485C5.01361 6.56762 5.16522 6.41601 5.35245 6.41601H12.6478C12.835 6.41601 12.9866 6.56762 12.9866 6.75485V8.11248H5.01361ZM16.7873 7.13615C16.7866 7.6751 16.3499 8.11248 15.8102 8.11248H14.1994V6.75485C14.1987 5.89827 13.5043 5.20392 12.6477 5.20316H5.35241C4.49583 5.20392 3.80148 5.89827 3.80073 6.75485V8.11248H2.18991C1.65021 8.11248 1.21358 7.6751 1.21281 7.13615V2.18929C1.21356 1.65034 1.65019 1.21296 2.18991 1.21296H15.8103C16.35 1.21296 16.7866 1.65034 16.7874 2.18929L16.7873 7.13615ZM12.6053 11.8534C12.8349 12.09 12.8342 12.4667 12.6022 12.7017C12.371 12.9367 11.9943 12.9442 11.7548 12.7176C11.1711 12.2552 10.2857 10.0311 11.5713 9.95754V9.9583C11.732 9.96664 11.8829 10.0379 11.9905 10.1577C12.0981 10.2774 12.1535 10.4343 12.1451 10.595C12.1118 11.0612 12.2793 11.5191 12.6053 11.8534ZM7.06633 10.5322C7.11787 11.344 6.81922 12.14 6.24538 12.7176C6.13243 12.8298 5.97931 12.8927 5.82012 12.892C5.57604 12.8882 5.35773 12.7396 5.26524 12.513C5.17276 12.2871 5.22355 12.0278 5.39487 11.8535C5.72082 11.5192 5.88835 11.0614 5.85499 10.5952C5.84286 10.2639 6.09832 9.98421 6.42957 9.96676C6.76006 9.95009 7.04436 10.2009 7.06633 10.5322ZM9.60651 10.5633V12.2855C9.60196 12.6175 9.33134 12.8836 9.00009 12.8836C8.66884 12.8836 8.39821 12.6175 8.39367 12.2855V10.5633V10.564C8.39821 10.232 8.66884 9.96595 9.00009 9.96595C9.33134 9.96595 9.60197 10.232 9.60651 10.5633ZM14.3032 3.6615C13.9765 3.65013 13.7173 3.38179 13.7173 3.05508C13.7173 2.72761 13.9765 2.46003 14.3032 2.44866C14.6299 2.46003 14.8892 2.72761 14.8892 3.05508C14.8892 3.38179 14.6299 3.65013 14.3032 3.6615ZM12.1801 3.6615C11.8534 3.65013 11.5941 3.38179 11.5941 3.05508C11.5941 2.72761 11.8534 2.46003 12.1801 2.44866C12.5068 2.46003 12.766 2.72761 12.766 3.05508C12.766 3.38179 12.5068 3.65013 12.1801 3.6615Z" fill="#757575"/>
</svg>
