<svg width="18" height="21" viewBox="0 0 18 21" fill="none" xmlns="http://www.w3.org/2000/svg">
<path d="M4.25822 20.2499C3.28932 20.2483 2.50403 19.463 2.50244 18.4933V8.70901C2.49926 8.22099 2.2632 7.76317 1.86658 7.47702C0.696595 6.6059 0.103646 5.21661 0.280894 3.75952V3.76032C0.39376 2.88838 0.78879 2.07767 1.40557 1.45127C2.02234 0.824871 2.82593 0.417207 3.69548 0.290035C4.32976 0.199425 4.97675 0.263011 5.58002 0.47682C5.75408 0.536432 5.88523 0.682676 5.92497 0.862305C5.9663 1.03876 5.91305 1.22474 5.78349 1.35191L3.78371 3.3501C3.72966 3.40415 3.72966 3.49238 3.78371 3.54563L4.97117 4.73309C5.02522 4.78714 5.11265 4.78714 5.1667 4.73309L7.16648 2.73331C7.29445 2.60535 7.47965 2.5513 7.65609 2.59184C7.83572 2.63317 7.98197 2.76431 8.04236 2.93837C8.36746 3.86515 8.34042 4.87935 7.96686 5.78704C7.5933 6.69472 6.89861 7.43393 6.01556 7.8631V18.4931C6.01477 19.4636 5.22868 20.2489 4.2582 20.2497L4.25822 20.2499ZM4.25981 0.895903L4.2606 0.895109C4.10084 0.895903 3.94188 0.907031 3.78369 0.929287C2.30373 1.13752 1.09883 2.35997 0.919975 3.83757H0.91918C0.842876 4.42891 0.925538 5.03061 1.16001 5.57983C1.39369 6.12905 1.77044 6.60516 2.25132 6.95964C2.82121 7.38407 3.14787 8.02154 3.14787 8.71065V18.495C3.14151 18.793 3.25597 19.0808 3.46501 19.2938C3.67404 19.5068 3.96019 19.6268 4.25824 19.6268C4.55629 19.6268 4.84164 19.5068 5.05068 19.2938C5.25971 19.0808 5.37416 18.7931 5.36861 18.495V7.65665C5.36861 7.52629 5.44729 7.40865 5.56731 7.35939C6.17695 7.10266 6.69756 6.67107 7.06398 6.11945C7.42961 5.56784 7.62433 4.92085 7.62354 4.25876V4.25956C7.62354 3.94321 7.57823 3.62846 7.48921 3.32483L5.62295 5.19268H5.62375C5.4767 5.33972 5.27721 5.42238 5.06974 5.42238C4.86228 5.42238 4.66279 5.33972 4.51574 5.19268L3.32907 4.00202C3.02306 3.69601 3.02306 3.20083 3.32907 2.89403L5.19692 1.02618V1.02698C4.89249 0.937957 4.57774 0.893447 4.2606 0.894242L4.25981 0.895903Z" fill="#757575" stroke="#757575" stroke-width="0.5"/>
<path d="M13.5735 20.2498C12.6531 20.2482 11.9076 19.5026 11.906 18.5822V7.72333C11.9028 7.70585 11.8901 7.69074 11.8726 7.68359C10.8242 7.17252 10.0612 6.21714 9.79327 5.08134C9.52541 3.94633 9.78214 2.75012 10.4911 1.8241C11.4902 0.535689 13.1355 0.00394574 14.6831 0.466528C14.8524 0.517397 14.9828 0.653313 15.0249 0.824198V0.824992C15.0686 0.999855 15.0178 1.18584 14.8898 1.3138L13.0219 3.17848L14.3286 4.48676L16.3133 2.50287C16.4341 2.38206 16.6066 2.32881 16.7743 2.3614C16.9381 2.39239 17.0764 2.50287 17.1423 2.65548V2.65627C17.4491 3.36923 17.535 4.1585 17.3879 4.92157C17.2409 5.68465 16.8689 6.38564 16.3189 6.93486L15.2522 8.00073C15.2435 8.00947 15.2387 8.0206 15.2387 8.03332V18.5823C15.2371 19.5019 14.4923 20.2474 13.5735 20.2498ZM13.5656 0.949683C12.5601 0.952863 11.6127 1.4226 11.0014 2.22141C10.1382 3.33418 10.1175 4.96365 10.9521 6.0962H10.9513C11.2653 6.5262 11.6786 6.87274 12.1563 7.10641C12.3947 7.22007 12.5473 7.45932 12.5497 7.72319V18.5821C12.5497 19.1464 13.0075 19.6042 13.5718 19.6042C14.1354 19.6042 14.5932 19.1464 14.5932 18.5821V8.03308C14.5924 7.84948 14.6655 7.67383 14.7959 7.54427L15.6336 6.70652L12.4702 3.54064C12.374 3.44526 12.3192 3.31491 12.3192 3.17901C12.3192 3.04309 12.374 2.91274 12.4702 2.81737L14.2681 1.02503C14.0376 0.974161 13.8024 0.948888 13.5656 0.949683ZM14.784 4.94534L16.0796 6.24091H16.0804C16.8029 5.36501 17.0104 4.17278 16.6257 3.10453L14.784 4.94534Z" fill="#757575" stroke="#757575" stroke-width="0.5"/>
<path d="M13.2716 6.34685C13.185 6.34765 13.1023 6.31268 13.0419 6.25147L11.5016 4.68963C11.3815 4.56167 11.3855 4.36137 11.5103 4.23816C11.6351 4.11496 11.8354 4.11417 11.961 4.23657L13.5029 5.79841C13.5943 5.89141 13.6206 6.02891 13.5705 6.14894C13.5204 6.26897 13.4028 6.34685 13.2732 6.34685L13.2716 6.34685Z" fill="#757575" stroke="#757575" stroke-width="0.5"/>
</svg>
