<svg width="17" height="21" viewBox="0 0 17 21" fill="none" xmlns="http://www.w3.org/2000/svg">
<path d="M8.24949 0.25C7.85201 0.25 7.45825 0.331559 7.09359 0.488119L1.47247 2.89645C0.731881 3.21424 0.25 3.94454 0.25 4.74984V12.7493C0.25 13.3989 0.39437 14.2633 0.728113 14.8914C1.84463 16.9904 3.80866 18.7145 7.09728 20.0316C7.45353 20.1759 7.87913 20.25 8.24944 20.25C8.61975 20.25 9.04535 20.1759 9.4016 20.0334C12.6902 18.7163 14.6543 16.9923 15.7708 14.8933C16.1054 14.2633 16.2489 13.3989 16.2489 12.7502V4.75078C16.2489 3.94455 15.767 3.21427 15.0264 2.89645L9.40529 0.489083C9.04062 0.331588 8.64696 0.25 8.24949 0.25ZM8.24949 1.25029C8.51199 1.25029 8.76979 1.30373 9.01165 1.40685L14.6347 3.81709C15.0087 3.9774 15.2497 4.34208 15.2497 4.74987V12.7493C15.2497 13.2049 15.0725 14.0749 14.8887 14.4208C13.8922 16.2958 12.1691 17.8462 9.02956 19.1045C8.87206 19.1683 8.43145 19.2498 8.24958 19.2498C8.06772 19.2498 7.62709 19.1683 7.47054 19.1055C4.33096 17.8474 2.60781 16.2968 1.61136 14.4218C1.42668 14.0758 1.2495 13.2049 1.2495 12.7503V4.75081C1.2495 4.34208 1.49043 3.97739 1.86541 3.81616L7.48749 1.40687C7.72935 1.30375 7.98698 1.25029 8.24949 1.25029Z" fill="#757575" stroke="#757575" stroke-width="0.5"/>
<path d="M8.25017 6.24979C7.97363 6.24979 7.75051 6.47385 7.75051 6.7504V9.7503H4.7506C4.47406 9.7503 4.25 9.97342 4.25 10.25C4.25 10.3822 4.30344 10.5096 4.39718 10.6034C4.49093 10.6972 4.61749 10.7497 4.75062 10.7497H7.75053V13.7496C7.75053 13.8827 7.80303 14.0092 7.89678 14.103C7.99052 14.1967 8.11802 14.2502 8.25021 14.2502C8.38241 14.2502 8.50989 14.1967 8.60365 14.103C8.6974 14.0093 8.7499 13.8827 8.7499 13.7496V10.7497H11.7498C11.8829 10.7497 12.0095 10.6972 12.1032 10.6034C12.197 10.5097 12.2504 10.3822 12.2504 10.25C12.2504 10.1178 12.197 9.9903 12.1032 9.89653C12.0095 9.80279 11.8829 9.75029 11.7498 9.75029H8.7499V6.75038C8.7499 6.61725 8.6974 6.4907 8.60365 6.39694C8.5099 6.30319 8.38237 6.24979 8.25017 6.24979Z" fill="#757575" stroke="#757575" stroke-width="0.5"/>
</svg>
