<svg width="15" height="17" viewBox="0 0 15 17" fill="none" xmlns="http://www.w3.org/2000/svg">
<path d="M14.8038 10.5567C14.8038 10.5396 14.8001 10.5225 14.7979 10.5054V8.76836C14.7979 8.74902 14.8038 8.72819 14.8038 8.70959C14.8038 7.50596 13.1166 6.56125 10.9623 6.56125C8.80861 6.56125 7.12075 7.50377 7.12075 8.70959C7.12075 8.71926 7.12298 8.72893 7.12298 8.74009V8.75125V9.22363C6.42818 8.70216 5.31975 8.37037 4.04168 8.37037C1.888 8.37037 0.20014 9.31289 0.20014 10.5187C0.20014 10.5284 0.202372 10.5381 0.202372 10.547V10.5581V12.3085V12.3234V12.3405V14.0165V14.0508V14.0835V14.1482C0.202372 14.1921 0.209811 14.236 0.225432 14.2762C0.419585 15.3786 2.0346 16.2 4.04164 16.2C5.58225 16.2 6.88852 15.7164 7.5023 14.9949C8.11529 15.7165 9.42155 16.2 10.963 16.2C12.982 16.2 14.6043 15.3698 14.783 14.2577C14.7926 14.2235 14.7979 14.187 14.7979 14.1491V14.126C14.8016 14.1015 14.8038 14.0762 14.8038 14.0516C14.8038 14.0249 14.8016 14.0003 14.7979 13.981V12.3831C14.7979 12.3637 14.8038 12.3429 14.8038 12.3243C14.8038 12.3072 14.8001 12.2901 14.7979 12.273V10.6178C14.7979 10.5985 14.8038 10.5776 14.8038 10.559L14.8038 10.5567ZM14.0361 12.3659C13.9811 13.0093 12.7358 13.7086 10.9622 13.7086C9.18953 13.7086 7.90037 12.987 7.88475 12.3354V11.8533C8.57955 12.3733 9.68798 12.7044 10.9622 12.7044C12.2366 12.7044 13.3405 12.3733 14.0361 11.8548V12.3659ZM0.964959 11.8117C1.65976 12.3317 2.76819 12.6627 4.04245 12.6627C5.31676 12.6627 6.42066 12.3317 7.11633 11.8132V12.3651C7.06128 13.0086 5.81748 13.7079 4.04245 13.7079C2.26751 13.7079 0.980575 12.9863 0.964959 12.3331V11.8117ZM10.963 10.858C12.2351 10.858 13.3412 10.5269 14.0369 10.0084V10.6006C13.9818 11.2441 12.7366 11.9433 10.963 11.9433C9.19029 11.9433 7.90113 11.2218 7.88552 10.5701V10.0062C8.58031 10.5262 9.68875 10.8573 10.963 10.8573V10.858ZM10.963 7.32305C12.7744 7.32305 14.0346 8.05058 14.0428 8.70373C14.0428 8.71861 14.0391 8.73423 14.0391 8.74911C13.984 9.39481 12.7387 10.0933 10.9652 10.0933C9.19247 10.0933 7.88541 9.36209 7.88541 8.70672C7.88541 8.05134 9.15004 7.32009 10.9652 7.32009L10.963 7.32305ZM4.04169 9.13073C5.85309 9.13073 7.11329 9.85827 7.12147 10.5114C7.12147 10.5263 7.11775 10.5419 7.11775 10.5568C7.06271 11.2025 5.8189 11.901 4.04388 11.901C2.26893 11.901 0.964096 11.172 0.964096 10.5144C0.964096 9.85754 2.22873 9.12778 4.04388 9.12778L4.04169 9.13073ZM7.11766 14.0821V14.0881C7.11766 14.0941 7.11543 14.1015 7.11543 14.1074C7.04699 14.7494 5.79575 15.4368 4.04384 15.4368C2.29195 15.4368 1.04062 14.7494 0.972249 14.1074C0.972249 14.0941 0.96853 14.0829 0.966298 14.0695V14.0583V14.0509V14.0375V13.6202C1.6611 14.1402 2.76953 14.4712 4.04379 14.4712C5.31806 14.4712 6.422 14.1402 7.11767 13.6217V13.9966V14.0175C7.11767 14.0271 7.11767 14.0383 7.1199 14.048C7.1199 14.0576 7.11767 14.0688 7.11767 14.0785L7.11766 14.0821ZM14.0359 14.0836V14.0874C14.0359 14.0933 14.0337 14.1007 14.0337 14.1067C13.9653 14.7487 12.714 15.4361 10.9621 15.4361C9.21021 15.4361 7.95889 14.7487 7.89052 14.1067C7.89052 14.0933 7.8868 14.0821 7.88457 14.0688V14.0576V14.0502V14.0368V13.6194C8.57937 14.1394 9.6878 14.4705 10.9621 14.4705C12.2364 14.4705 13.3403 14.1394 14.0359 13.6209V13.9959V14.0152C14.0359 14.0264 14.0359 14.0361 14.0382 14.048C14.0382 14.0591 14.0359 14.071 14.0359 14.0807L14.0359 14.0836Z" fill="white" stroke="white" stroke-width="0.2"/>
<path d="M0.581819 7.43751C0.679271 7.43751 0.775972 7.39957 0.850376 7.32518L3.78733 4.38823L5.36216 5.96306C5.51094 6.11185 5.75272 6.11185 5.90074 5.96306L10.4199 1.44395V3.37652C10.4199 3.58631 10.591 3.7574 10.8007 3.7574C11.0105 3.7574 11.1816 3.5863 11.1816 3.37652V0.580875C11.1816 0.371087 11.0105 0.199997 10.8007 0.199997H7.97463C7.76484 0.199997 7.59375 0.371095 7.59375 0.580875C7.59375 0.790663 7.76485 0.961753 7.97463 0.961753H9.82547L5.632 5.15522L4.05716 3.58039C3.90838 3.43161 3.66661 3.43161 3.51858 3.58039L0.311586 6.78738C0.162806 6.93616 0.162806 7.17793 0.311586 7.32596C0.385975 7.40035 0.482684 7.43829 0.580143 7.43829L0.581819 7.43751Z" fill="white" stroke="white" stroke-width="0.4"/>
</svg>
