<svg width="19" height="14" viewBox="0 0 19 14" fill="none" xmlns="http://www.w3.org/2000/svg">
<path d="M5.55833 2.55389C7.53309 2.55389 9.09643 4.15838 9.09643 6.092C9.09643 7.24394 8.5616 8.3136 7.61537 8.97185C9.17872 9.58896 10.3718 10.9055 10.8655 12.4688C10.9478 12.7568 10.8243 13.0448 10.5364 13.1271C10.2484 13.2093 9.96039 13.0859 9.87811 12.7979C9.30214 10.9055 7.53309 9.6301 5.55833 9.6301C3.62472 9.6301 1.85566 10.9055 1.27969 12.7979C1.19741 13.0859 0.909428 13.2093 0.621443 13.1271C0.333458 13.0448 0.168895 12.7568 0.292317 12.4688C0.786006 10.9055 1.97909 9.58896 3.54243 8.97185C2.5962 8.3136 2.02023 7.24394 2.02023 6.092C2.02023 4.15838 3.62472 2.55389 5.55833 2.55389ZM5.55833 3.62355C4.20069 3.62355 3.08989 4.73435 3.08989 6.092C3.08989 7.49078 4.20069 8.60158 5.55833 8.60158C6.95712 8.60158 8.06792 7.49078 8.06792 6.092C8.06792 4.73435 6.95712 3.62355 5.55833 3.62355Z" fill="white" stroke="white" stroke-width="0.5"/>
<path d="M13.2516 0.25C15.0618 0.25 16.584 1.73107 16.584 3.5824C16.584 4.65206 16.0904 5.63944 15.2264 6.25655C16.6663 6.87366 17.736 8.06674 18.2297 9.54781C18.312 9.79465 18.1474 10.0826 17.8594 10.1649C17.6126 10.2883 17.2834 10.1238 17.2012 9.83579C16.6663 8.10788 15.0618 6.9148 13.2516 6.9148C11.9763 6.9148 10.7832 7.49077 10.0015 8.47815C9.79583 8.72499 9.4667 8.76613 9.261 8.56043C9.01415 8.39587 8.97301 8.06674 9.17872 7.8199C9.71355 7.16164 10.4541 6.62681 11.2358 6.25655C10.4129 5.63944 9.91925 4.65206 9.91925 3.5824C9.91925 1.73107 11.4003 0.25 13.2516 0.25ZM13.2516 1.27852C11.9763 1.27852 10.9478 2.30704 10.9478 3.5824C10.9478 4.85776 11.9763 5.88628 13.2516 5.88628C14.4859 5.88628 15.5144 4.85776 15.5144 3.5824C15.5144 2.30704 14.4859 1.27852 13.2516 1.27852Z" fill="white" stroke="white" stroke-width="0.5"/>
</svg>
