<svg width="48" height="48" viewBox="0 0 48 48" fill="none" xmlns="http://www.w3.org/2000/svg">
<rect width="47.3292" height="47.3292" rx="23.6646" fill="#F5F5F5"/>
<path d="M29.23 30.9814H29.8153V35.3716C29.8153 35.4825 29.7513 35.5854 29.6484 35.6346C29.6073 35.6551 29.5638 35.6643 29.5227 35.6643C29.4586 35.6643 29.3935 35.6437 29.3409 35.6003L26.5959 33.4052L23.8509 35.6003C23.7423 35.6849 23.5936 35.6849 23.485 35.6003L20.74 33.4052L17.995 35.6003C17.8864 35.6849 17.7378 35.6849 17.6292 35.6003L14.8842 33.4052L12.1392 35.6003C12.0512 35.67 11.9311 35.6849 11.8294 35.6357C11.7265 35.5854 11.6624 35.4836 11.6624 35.3727L11.6602 13.1485C11.6602 12.3288 12.3244 11.6646 13.1441 11.6646H28.3221C29.1419 11.6646 29.8061 12.3288 29.8061 13.1485V14.006H29.2207V13.1485C29.2207 12.6535 28.8172 12.2499 28.3221 12.2499H13.1532C12.6582 12.2499 12.2546 12.6535 12.2546 13.1485V34.7634L14.7069 32.8027C14.8155 32.7181 14.9641 32.7181 15.0728 32.8027L17.8178 34.9978L20.5628 32.8027C20.6714 32.7181 20.82 32.7181 20.9286 32.8027L23.6736 34.9978L26.4186 32.8027C26.5272 32.7181 26.6758 32.7181 26.7844 32.8027L29.2368 34.7634V30.9814L29.23 30.9814ZM21.035 17.2256H17.6692V17.8109H21.035V17.2256ZM16.1326 17.2256H14.8888V17.8109H16.1326V17.2256ZM17.5229 21.9084V22.4938H19.8643V21.9084H17.5229ZM16.0595 21.9084H14.8888V22.4938H16.0595V21.9084ZM17.5229 27.1766H20.7423V26.5913H17.5229V27.1766ZM14.8888 27.1766H16.0595V26.5913H14.8888V27.1766ZM35.6689 22.4938C35.6689 26.3659 32.5168 29.518 28.6446 29.518C27.3779 29.518 26.1397 29.175 25.0593 28.5314C23.9115 27.8523 22.9843 26.8634 22.3818 25.6721C21.8845 24.7037 21.6203 23.6027 21.6203 22.4939C21.6203 22.3704 21.6203 22.2481 21.6295 22.1246C21.7027 20.7081 22.1977 19.367 23.0574 18.2408C23.9583 17.0529 25.2468 16.1692 26.6782 15.753C27.3161 15.5655 27.9781 15.4718 28.6446 15.4718C32.5167 15.4718 35.6689 18.6239 35.6689 22.496L35.6689 22.4938ZM35.0835 22.4938C35.0835 18.9439 32.1945 16.0548 28.6446 16.0548C28.033 16.0548 27.427 16.1429 26.8417 16.3121C25.528 16.6928 24.3505 17.5034 23.5227 18.5952C22.7327 19.6287 22.2822 20.86 22.2148 22.1542C22.2091 22.2651 22.2056 22.3794 22.2056 22.4937C22.2056 23.509 22.4457 24.5162 22.9019 25.4056C23.4552 26.4975 24.3036 27.4041 25.3576 28.0283C26.3466 28.6194 27.483 28.9326 28.6444 28.9326C32.1943 28.9326 35.0835 26.0436 35.0835 22.4938ZM28.0593 19.567H29.23C29.8771 19.567 30.4007 20.0906 30.4007 20.7377H30.9861C30.9861 19.7693 30.1983 18.9816 29.23 18.9816H28.9373V18.1036H28.3519V18.9816H28.0593C27.0909 18.9816 26.3032 19.7693 26.3032 20.7377V21.0304C26.3032 21.9987 27.0909 22.7864 28.0593 22.7864H29.23C29.8771 22.7864 30.4007 23.3101 30.4007 23.9572V24.2498C30.4007 24.8969 29.8771 25.4205 29.23 25.4205H28.0593C27.4122 25.4205 26.8886 24.8969 26.8886 24.2498H26.3032C26.3032 25.2182 27.0909 26.0059 28.0593 26.0059H28.3519V26.8839H28.9373V26.0059H29.23C30.1983 26.0059 30.9861 25.2182 30.9861 24.2498V23.9572C30.9861 22.9888 30.1983 22.2011 29.23 22.2011H28.0593C27.4122 22.2011 26.8886 21.6775 26.8886 21.0304V20.7377C26.8886 20.0906 27.4122 19.567 28.0593 19.567Z" fill="#757575" stroke="#757575"/>
</svg>
