<svg width="48" height="48" viewBox="0 0 48 48" fill="none" xmlns="http://www.w3.org/2000/svg">
<rect width="47.3292" height="47.3292" rx="23.6646" fill="#F5F5F5"/>
<path d="M30.2627 25.0069C30.2037 24.9347 30.1305 24.8755 30.0476 24.8329C29.9647 24.7902 29.8739 24.7651 29.7808 24.7592C29.6878 24.7532 29.5945 24.7664 29.5069 24.7981C29.4192 24.8297 29.3389 24.8791 29.2712 24.9431C29.2034 25.0071 29.1496 25.0844 29.113 25.1702C29.0764 25.2559 29.0579 25.3483 29.0586 25.4415C29.0593 25.5348 29.0792 25.6268 29.1171 25.712C29.1549 25.7972 29.21 25.8737 29.2787 25.9367L30.3985 27.1311L29.2787 28.3256C29.1894 28.4218 29.1299 28.5419 29.1075 28.6713C29.0851 28.8007 29.1007 28.9338 29.1524 29.0545C29.2042 29.1751 29.2898 29.2782 29.3989 29.3512C29.508 29.4242 29.636 29.464 29.7673 29.4657C29.8599 29.4663 29.9516 29.4479 30.0368 29.4117C30.122 29.3756 30.1989 29.3223 30.2627 29.2553L31.335 28.122L32.4073 29.2553C32.4704 29.3215 32.5462 29.3743 32.6301 29.4104C32.7141 29.4466 32.8045 29.4654 32.8959 29.4657C33.0278 29.4653 33.1567 29.4265 33.2668 29.354C33.377 29.2815 33.4636 29.1785 33.5162 29.0575C33.5687 28.9366 33.5849 28.803 33.5628 28.673C33.5406 28.543 33.481 28.4223 33.3914 28.3256L32.2648 27.1108L33.3914 25.9163C33.4805 25.782 33.5188 25.6203 33.4996 25.4602C33.4804 25.3002 33.4048 25.1522 33.2864 25.0428C33.168 24.9334 33.0145 24.8697 32.8534 24.8631C32.6924 24.8565 32.5342 24.9075 32.4073 25.0069L31.335 26.1403L30.2627 25.0069Z" fill="#757575" stroke="#757575" stroke-width="0.5"/>
<path d="M25.7886 29.4026C26.1841 29.4016 26.5789 29.3698 26.9695 29.3076C27.0586 29.2942 27.1442 29.2634 27.2215 29.217C27.2987 29.1705 27.366 29.1093 27.4196 29.0368C27.4731 28.9644 27.5119 28.8821 27.5337 28.7946C27.5554 28.7072 27.5597 28.6163 27.5464 28.5271C27.533 28.438 27.5022 28.3524 27.4558 28.2752C27.4093 28.198 27.3481 28.1306 27.2756 28.0771C27.2031 28.0235 27.1208 27.9847 27.0334 27.963C26.9459 27.9412 26.855 27.9369 26.7659 27.9503C26.4424 27.999 26.1158 28.024 25.7886 28.0249C24.5118 28.033 23.2613 27.6617 22.1957 26.9582C21.1301 26.2547 20.2974 25.2506 19.8032 24.0733C19.309 22.8959 19.1755 21.5983 19.4196 20.345C19.6638 19.0917 20.2746 17.9391 21.1746 17.0334C22.0746 16.1276 23.2233 15.5095 24.4751 15.2574C25.7268 15.0053 27.0252 15.1306 28.2057 15.6174C29.3861 16.1041 30.3955 16.9305 31.1057 17.9916C31.816 19.0527 32.1952 20.3008 32.1952 21.5777C32.1967 21.8866 32.174 22.1952 32.1273 22.5007C32.1022 22.6788 32.1488 22.8597 32.257 23.0035C32.3651 23.1474 32.526 23.2423 32.7042 23.2675C32.8824 23.2927 33.0633 23.2461 33.2071 23.1379C33.3509 23.0297 33.4458 22.8689 33.4711 22.6907C33.5254 22.3222 33.5526 21.9502 33.5525 21.5777C33.5485 20.0332 33.0863 18.5247 32.2244 17.243C31.3626 15.9614 30.1399 14.9643 28.711 14.3779C27.2822 13.7915 25.7115 13.6423 24.1978 13.949C22.6842 14.2558 21.2955 15.0048 20.2077 16.1011C19.1199 17.1975 18.3818 18.592 18.0869 20.108C17.7921 21.6241 17.9536 23.1935 18.5512 24.6177C19.1487 26.0419 20.1554 27.2568 21.4437 28.1085C22.7321 28.9603 24.2442 29.4107 25.7886 29.4026Z" fill="#757575" stroke="#757575" stroke-width="0.5"/>
<path d="M14.4404 33.5356C14.6185 33.5349 14.7891 33.4642 14.9155 33.3388L19.8697 28.3642C19.933 28.301 19.9832 28.2258 20.0174 28.1432C20.0517 28.0605 20.0693 27.9719 20.0693 27.8824C20.0693 27.7929 20.0517 27.7043 20.0174 27.6216C19.9832 27.5389 19.933 27.4638 19.8697 27.4005C19.8064 27.3373 19.7313 27.2871 19.6486 27.2528C19.5659 27.2186 19.4773 27.201 19.3878 27.201C19.2984 27.201 19.2097 27.2186 19.1271 27.2528C19.0444 27.2871 18.9693 27.3373 18.906 27.4005L13.9586 32.3751C13.8629 32.47 13.7976 32.5913 13.7711 32.7235C13.7446 32.8557 13.758 32.9927 13.8097 33.1172C13.8614 33.2417 13.949 33.348 14.0613 33.4225C14.1736 33.497 14.3056 33.5364 14.4404 33.5356Z" fill="#757575" stroke="#757575" stroke-width="0.5"/>
</svg>
