<svg width="45" height="45" viewBox="0 0 45 45" fill="none" xmlns="http://www.w3.org/2000/svg">
<rect width="45" height="45" rx="9" fill="#FEF2F2"/>
<path d="M21.25 26.5C21.5333 26.5 21.7708 26.4042 21.9625 26.2125C22.1542 26.0208 22.25 25.7833 22.25 25.5C22.25 25.2167 22.1542 24.9792 21.9625 24.7875C21.7708 24.5958 21.5333 24.5 21.25 24.5C20.9667 24.5 20.7292 24.5958 20.5375 24.7875C20.3458 24.9792 20.25 25.2167 20.25 25.5C20.25 25.7833 20.3458 26.0208 20.5375 26.2125C20.7292 26.4042 20.9667 26.5 21.25 26.5ZM21.25 22.5C21.5333 22.5 21.7708 22.4042 21.9625 22.2125C22.1542 22.0208 22.25 21.7833 22.25 21.5C22.25 21.2167 22.1542 20.9792 21.9625 20.7875C21.7708 20.5958 21.5333 20.5 21.25 20.5C20.9667 20.5 20.7292 20.5958 20.5375 20.7875C20.3458 20.9792 20.25 21.2167 20.25 21.5C20.25 21.7833 20.3458 22.0208 20.5375 22.2125C20.7292 22.4042 20.9667 22.5 21.25 22.5ZM21.25 18.5C21.5333 18.5 21.7708 18.4042 21.9625 18.2125C22.1542 18.0208 22.25 17.7833 22.25 17.5C22.25 17.2167 22.1542 16.9792 21.9625 16.7875C21.7708 16.5958 21.5333 16.5 21.25 16.5C20.9667 16.5 20.7292 16.5958 20.5375 16.7875C20.3458 16.9792 20.25 17.2167 20.25 17.5C20.25 17.7833 20.3458 18.0208 20.5375 18.2125C20.7292 18.4042 20.9667 18.5 21.25 18.5ZM29.25 29.5H13.25C12.7 29.5 12.2292 29.3042 11.8375 28.9125C11.4458 28.5208 11.25 28.05 11.25 27.5V23.5C11.8 23.5 12.2708 23.3042 12.6625 22.9125C13.0542 22.5208 13.25 22.05 13.25 21.5C13.25 20.95 13.0542 20.4792 12.6625 20.0875C12.2708 19.6958 11.8 19.5 11.25 19.5V15.5C11.25 14.95 11.4458 14.4792 11.8375 14.0875C12.2292 13.6958 12.7 13.5 13.25 13.5H29.25C29.8 13.5 30.2708 13.6958 30.6625 14.0875C31.0542 14.4792 31.25 14.95 31.25 15.5V19.5C30.7 19.5 30.2292 19.6958 29.8375 20.0875C29.4458 20.4792 29.25 20.95 29.25 21.5C29.25 22.05 29.4458 22.5208 29.8375 22.9125C30.2292 23.3042 30.7 23.5 31.25 23.5V27.5C31.25 28.05 31.0542 28.5208 30.6625 28.9125C30.2708 29.3042 29.8 29.5 29.25 29.5ZM29.25 27.5V24.95C28.6333 24.5833 28.1458 24.0958 27.7875 23.4875C27.4292 22.8792 27.25 22.2167 27.25 21.5C27.25 20.7833 27.4292 20.1208 27.7875 19.5125C28.1458 18.9042 28.6333 18.4167 29.25 18.05V15.5H13.25V18.05C13.8667 18.4167 14.3542 18.9042 14.7125 19.5125C15.0708 20.1208 15.25 20.7833 15.25 21.5C15.25 22.2167 15.0708 22.8792 14.7125 23.4875C14.3542 24.0958 13.8667 24.5833 13.25 24.95V27.5H29.25Z" fill="#DC2626"/>
</svg>
