<svg width="45" height="45" viewBox="0 0 45 45" fill="none" xmlns="http://www.w3.org/2000/svg">
<rect width="45" height="45" rx="9" fill="#EEF2FF"/>
<path d="M23.125 22.5C22.2917 22.5 21.5833 22.2083 21 21.625C20.4167 21.0417 20.125 20.3333 20.125 19.5C20.125 18.6667 20.4167 17.9583 21 17.375C21.5833 16.7917 22.2917 16.5 23.125 16.5C23.9583 16.5 24.6667 16.7917 25.25 17.375C25.8333 17.9583 26.125 18.6667 26.125 19.5C26.125 20.3333 25.8333 21.0417 25.25 21.625C24.6667 22.2083 23.9583 22.5 23.125 22.5ZM16.125 25.5C15.575 25.5 15.1042 25.3042 14.7125 24.9125C14.3208 24.5208 14.125 24.05 14.125 23.5V15.5C14.125 14.95 14.3208 14.4792 14.7125 14.0875C15.1042 13.6958 15.575 13.5 16.125 13.5H30.125C30.675 13.5 31.1458 13.6958 31.5375 14.0875C31.9292 14.4792 32.125 14.95 32.125 15.5V23.5C32.125 24.05 31.9292 24.5208 31.5375 24.9125C31.1458 25.3042 30.675 25.5 30.125 25.5H16.125ZM18.125 23.5H28.125C28.125 22.95 28.3208 22.4792 28.7125 22.0875C29.1042 21.6958 29.575 21.5 30.125 21.5V17.5C29.575 17.5 29.1042 17.3042 28.7125 16.9125C28.3208 16.5208 28.125 16.05 28.125 15.5H18.125C18.125 16.05 17.9292 16.5208 17.5375 16.9125C17.1458 17.3042 16.675 17.5 16.125 17.5V21.5C16.675 21.5 17.1458 21.6958 17.5375 22.0875C17.9292 22.4792 18.125 22.95 18.125 23.5ZM29.125 29.5H12.125C11.575 29.5 11.1042 29.3042 10.7125 28.9125C10.3208 28.5208 10.125 28.05 10.125 27.5V16.5H12.125V27.5H29.125V29.5ZM16.125 23.5V15.5V23.5Z" fill="#4F46E5"/>
</svg>
