<svg width="45" height="45" viewBox="0 0 45 45" fill="none" xmlns="http://www.w3.org/2000/svg">
<rect width="45" height="45" rx="9" fill="#F1F3F6"/>
<path d="M11.25 30.375V12.375H21.25V16.375H31.25V30.375H11.25ZM13.25 28.375H15.25V26.375H13.25V28.375ZM13.25 24.375H15.25V22.375H13.25V24.375ZM13.25 20.375H15.25V18.375H13.25V20.375ZM13.25 16.375H15.25V14.375H13.25V16.375ZM17.25 28.375H19.25V26.375H17.25V28.375ZM17.25 24.375H19.25V22.375H17.25V24.375ZM17.25 20.375H19.25V18.375H17.25V20.375ZM17.25 16.375H19.25V14.375H17.25V16.375ZM21.25 28.375H29.25V18.375H21.25V20.375H23.25V22.375H21.25V24.375H23.25V26.375H21.25V28.375ZM25.25 22.375V20.375H27.25V22.375H25.25ZM25.25 26.375V24.375H27.25V26.375H25.25Z" fill="#2A3348"/>
</svg>
