<svg width="48" height="48" viewBox="0 0 48 48" fill="none" xmlns="http://www.w3.org/2000/svg">
<rect width="47.3292" height="47.3292" rx="23.6646" fill="#F5F5F5"/>
<path fill-rule="evenodd" clip-rule="evenodd" d="M30.8411 23.5063C27.9426 23.2669 25.8014 26.1715 26.889 28.8716L27.0413 29.2482L23.8273 32.4622C23.601 32.6885 23.4888 32.984 23.4888 33.2794H23.4918C23.4918 33.9224 24.0086 34.4362 24.6456 34.4362L24.6446 34.4332C24.9411 34.4332 25.2375 34.321 25.4619 34.0967L28.6758 30.8828C29.5842 31.2493 30.2723 31.4496 31.3049 31.2393C33.2379 30.8457 34.5809 29.0599 34.4178 27.0829L32.1523 29.3484L32.1513 29.3474C31.8408 29.6578 31.4102 29.773 30.9885 29.6599C28.5828 29.0159 28.9083 29.3404 28.2643 26.9356C28.1511 26.515 28.2683 26.0793 28.5758 25.7718L30.8411 23.5063ZM20.6183 11.6649C25.0902 11.6649 27.3447 17.0974 24.18 20.2621C21.0152 23.4268 15.5827 21.1725 15.5827 16.7005C15.5827 13.9201 17.8372 11.6646 20.6186 11.6646L20.6183 11.6649ZM23.3095 14.0105C20.9188 11.6188 16.8134 13.3214 16.8134 16.7016C16.8134 20.0818 20.9199 21.7834 23.3105 19.3928C24.7958 17.9065 24.7958 15.4968 23.3095 14.0105ZM21.066 30.6604C21.8763 30.6604 21.8763 31.8913 21.066 31.8913H14.1995C11.945 31.8913 11.2788 29.1409 11.8719 27.2872C12.9165 24.0171 17.3675 22.9105 20.6173 22.9105C22.1086 22.9105 23.6079 23.1228 24.9381 23.5485C25.7083 23.7938 25.3357 24.9606 24.5675 24.7163C21.8723 23.8589 18.2607 23.9451 15.7288 25.0718C14.0732 25.809 12.8905 26.9707 12.8905 28.6493C12.8905 29.4516 13.1799 30.6604 14.1985 30.6604L21.066 30.6604ZM29.0143 22.4898C29.7084 22.2785 31.393 22.0641 31.987 22.5989C32.4066 22.9765 32.4397 23.6486 32.025 24.0632L29.4559 26.6323L29.8445 28.0805L31.2928 28.4691L33.8626 25.8993C34.4265 25.3354 35.41 25.6208 35.5653 26.4221C36.3054 30.2329 32.7008 33.4699 28.9871 32.3133L26.3329 34.9675C25.8682 35.4322 25.2563 35.6646 24.6453 35.6646V35.6616C23.3203 35.6616 22.2606 34.599 22.2606 33.2799H22.2636C22.2636 32.667 22.495 32.055 22.9577 31.5923L25.6119 28.9381C24.7666 26.227 26.281 23.3243 29.0143 22.4902L29.0143 22.4898Z" fill="#757575" stroke="#757575" stroke-width="0.428571"/>
</svg>
