<svg width="45" height="45" viewBox="0 0 45 45" fill="none" xmlns="http://www.w3.org/2000/svg">
<rect width="45" height="45" rx="9" fill="#ECFDF5"/>
<path d="M10.125 29.5V26.7C10.125 26.1333 10.2708 25.6125 10.5625 25.1375C10.8542 24.6625 11.2417 24.3 11.725 24.05C12.7583 23.5333 13.8083 23.1458 14.875 22.8875C15.9417 22.6292 17.025 22.5 18.125 22.5C19.225 22.5 20.3083 22.6292 21.375 22.8875C22.4417 23.1458 23.4917 23.5333 24.525 24.05C25.0083 24.3 25.3958 24.6625 25.6875 25.1375C25.9792 25.6125 26.125 26.1333 26.125 26.7V29.5H10.125ZM28.125 29.5V26.5C28.125 25.7667 27.9208 25.0625 27.5125 24.3875C27.1042 23.7125 26.525 23.1333 25.775 22.65C26.625 22.75 27.425 22.9208 28.175 23.1625C28.925 23.4042 29.625 23.7 30.275 24.05C30.875 24.3833 31.3333 24.7542 31.65 25.1625C31.9667 25.5708 32.125 26.0167 32.125 26.5V29.5H28.125ZM18.125 21.5C17.025 21.5 16.0833 21.1083 15.3 20.325C14.5167 19.5417 14.125 18.6 14.125 17.5C14.125 16.4 14.5167 15.4583 15.3 14.675C16.0833 13.8917 17.025 13.5 18.125 13.5C19.225 13.5 20.1667 13.8917 20.95 14.675C21.7333 15.4583 22.125 16.4 22.125 17.5C22.125 18.6 21.7333 19.5417 20.95 20.325C20.1667 21.1083 19.225 21.5 18.125 21.5ZM28.125 17.5C28.125 18.6 27.7333 19.5417 26.95 20.325C26.1667 21.1083 25.225 21.5 24.125 21.5C23.9417 21.5 23.7083 21.4792 23.425 21.4375C23.1417 21.3958 22.9083 21.35 22.725 21.3C23.175 20.7667 23.5208 20.175 23.7625 19.525C24.0042 18.875 24.125 18.2 24.125 17.5C24.125 16.8 24.0042 16.125 23.7625 15.475C23.5208 14.825 23.175 14.2333 22.725 13.7C22.9583 13.6167 23.1917 13.5625 23.425 13.5375C23.6583 13.5125 23.8917 13.5 24.125 13.5C25.225 13.5 26.1667 13.8917 26.95 14.675C27.7333 15.4583 28.125 16.4 28.125 17.5ZM12.125 27.5H24.125V26.7C24.125 26.5167 24.0792 26.35 23.9875 26.2C23.8958 26.05 23.775 25.9333 23.625 25.85C22.725 25.4 21.8167 25.0625 20.9 24.8375C19.9833 24.6125 19.0583 24.5 18.125 24.5C17.1917 24.5 16.2667 24.6125 15.35 24.8375C14.4333 25.0625 13.525 25.4 12.625 25.85C12.475 25.9333 12.3542 26.05 12.2625 26.2C12.1708 26.35 12.125 26.5167 12.125 26.7V27.5ZM18.125 19.5C18.675 19.5 19.1458 19.3042 19.5375 18.9125C19.9292 18.5208 20.125 18.05 20.125 17.5C20.125 16.95 19.9292 16.4792 19.5375 16.0875C19.1458 15.6958 18.675 15.5 18.125 15.5C17.575 15.5 17.1042 15.6958 16.7125 16.0875C16.3208 16.4792 16.125 16.95 16.125 17.5C16.125 18.05 16.3208 18.5208 16.7125 18.9125C17.1042 19.3042 17.575 19.5 18.125 19.5Z" fill="#059669"/>
</svg>
