<svg width="23" height="23" viewBox="0 0 23 23" fill="none" xmlns="http://www.w3.org/2000/svg">
<path d="M20.1609 9.28454H19.4161V9.24617H11.0949V12.9445H16.3201C15.5578 15.0974 13.5094 16.6429 11.0949 16.6429C8.03124 16.6429 5.54734 14.159 5.54734 11.0953C5.54734 8.03173 8.03124 5.54783 11.0949 5.54783C12.509 5.54783 13.7956 6.08131 14.7752 6.95274L17.3904 4.33755C15.739 2.79857 13.5302 1.84949 11.0949 1.84949C5.98883 1.84949 1.849 5.98932 1.849 11.0953C1.849 16.2014 5.98883 20.3412 11.0949 20.3412C16.2009 20.3412 20.3407 16.2014 20.3407 11.0953C20.3407 10.4754 20.2769 9.87026 20.1609 9.28454Z" fill="#FFC107"/>
<path d="M2.91449 6.79186L5.95221 9.01965C6.77417 6.98463 8.7648 5.54783 11.0943 5.54783C12.5084 5.54783 13.795 6.08131 14.7746 6.95274L17.3898 4.33755C15.7385 2.79857 13.5297 1.84949 11.0943 1.84949C7.54296 1.84949 4.46317 3.85445 2.91449 6.79186Z" fill="#FF3D00"/>
<path d="M11.095 20.3414C13.4832 20.3414 15.6532 19.4275 17.2939 17.9412L14.4323 15.5197C13.504 16.2229 12.3501 16.6431 11.095 16.6431C8.69017 16.6431 6.64822 15.1097 5.87896 12.9697L2.86389 15.2927C4.39408 18.287 7.50161 20.3414 11.095 20.3414Z" fill="#4CAF50"/>
<path d="M20.1609 9.28446H19.4161V9.24609H11.0948V12.9444H16.3201C15.954 13.9786 15.2888 14.8703 14.4308 15.5199L14.4321 15.5189L17.2937 17.9404C17.0912 18.1244 20.3407 15.7182 20.3407 11.0953C20.3407 10.4753 20.2769 9.87019 20.1609 9.28446Z" fill="#1976D2"/>
</svg>
