<svg width="17" height="17" viewBox="0 0 17 17" fill="none" xmlns="http://www.w3.org/2000/svg">
<path d="M16.059 4.6624L15.1788 4.16254V0.662834H15.1795C15.1767 0.555267 15.1317 0.453319 15.0537 0.379509C14.9757 0.304987 14.8716 0.264912 14.764 0.267725H12.0595C11.8359 0.267725 11.6545 0.449109 11.6545 0.67268C11.6545 0.897655 11.8352 1.07974 12.0595 1.08255H14.3648V3.69226L8.46491 0.322493C8.34258 0.247971 8.18791 0.247971 8.06557 0.322493L0.471322 4.66235C0.377114 4.71578 0.308919 4.80436 0.280796 4.90842C0.252672 5.01247 0.266735 5.12355 0.32087 5.21705C0.434061 5.41038 0.681532 5.47717 0.87627 5.3675L8.26534 1.14283L15.6544 5.3675C15.7479 5.42163 15.859 5.43569 15.963 5.40757C16.0678 5.37945 16.1564 5.31125 16.2098 5.21705C16.264 5.12354 16.278 5.01246 16.2499 4.90842C16.2218 4.80437 16.1536 4.71578 16.0594 4.66235L16.059 4.6624Z" fill="white" stroke="white" stroke-width="0.533323"/>
<path d="M14.7639 6.23243C14.5375 6.23243 14.3541 6.41592 14.3541 6.6423V14.766C14.3569 14.946 14.2866 15.1197 14.1593 15.2469C14.0328 15.3735 13.8591 15.4438 13.6791 15.441H11.3844V12.6063C11.3844 11.7781 10.713 11.1067 9.88479 11.1067H6.63526C5.80706 11.1067 5.13496 11.7781 5.13496 12.6063V15.4509L2.84022 15.4516C2.65884 15.4544 2.48377 15.3827 2.35652 15.2533C2.22928 15.1239 2.16038 14.9482 2.16529 14.7661V6.64235C2.166 6.41948 1.98813 6.2374 1.76595 6.23248C1.54098 6.2353 1.361 6.41808 1.361 6.64235V14.7661C1.361 15.595 2.03241 16.2664 2.86059 16.2664H13.7092C14.1043 16.2657 14.4833 16.1096 14.7638 15.8312C15.0373 15.5451 15.1871 15.1619 15.1793 14.7661V6.64233C15.1793 6.53266 15.135 6.42791 15.057 6.35057C14.9789 6.27323 14.8736 6.23102 14.7639 6.23243ZM5.96039 12.6062C5.95336 12.4192 6.02577 12.2378 6.16006 12.1064C6.29223 11.9742 6.47291 11.9025 6.65991 11.9067H9.91017C10.0965 11.9025 10.2772 11.9742 10.41 12.1064C10.5443 12.2378 10.6167 12.4192 10.6097 12.6062V15.4508L5.96046 15.4515L5.96039 12.6062Z" fill="white" stroke="white" stroke-width="0.533323"/>
<path d="M10.4347 7.04724C10.6583 7.04724 10.8396 6.86586 10.8396 6.64229C10.8396 6.41802 10.659 6.23523 10.4347 6.23242H6.09554C5.87127 6.23523 5.69059 6.41802 5.69059 6.64229C5.69059 6.86586 5.87197 7.04724 6.09554 7.04724H10.4347Z" fill="white" stroke="white" stroke-width="0.533323"/>
</svg>
